<?xml version="1.0" standalone="no"?><!-- Generator: Gravit.io --><svg xmlns="http://www.w3.org/2000/svg" xmlns:xlink="http://www.w3.org/1999/xlink" style="isolation:isolate" viewBox="603.28 43.006 55.774 60" width="55.774" height="60"><path d=" M 624.177 43.006 C 620.087 43.006 616.409 45.244 613.742 47.421 C 611.074 49.599 609.374 51.785 609.374 51.785 L 608.612 52.762 L 609.803 53.112 C 609.803 53.112 610.266 53.24 610.82 53.808 C 611.371 54.373 611.962 55.337 611.962 57.163 C 611.962 59.527 612.322 61.435 612.503 62.247 C 612.014 62.685 611.734 63.31 611.731 63.966 C 611.731 64.438 611.913 65.042 612.084 65.627 C 612.154 65.861 612.249 66.185 612.259 66.247 C 612.259 67.363 613.154 68.281 614.279 68.357 C 614.433 71.548 615.971 74.513 618.492 76.476 L 618.492 79.562 C 617.297 79.922 614.392 80.853 611.371 82.28 C 606.001 84.815 603.28 87.525 603.28 90.335 L 603.28 95.406 L 631.49 95.406 C 630.761 94.905 630.079 94.34 629.453 93.715 L 604.97 93.715 L 604.97 90.335 C 604.97 86.337 613.93 82.748 618.492 81.336 L 618.492 82.926 L 618.581 83.108 C 618.661 83.263 620.559 86.954 625.253 86.954 C 625.392 86.954 625.527 86.937 625.666 86.931 C 625.531 86.38 625.429 85.821 625.359 85.258 C 625.323 85.258 625.29 85.264 625.253 85.264 C 623.196 85.3 621.271 84.253 620.182 82.507 L 620.182 77.562 C 621.083 78.027 622.054 78.383 623.088 78.591 C 623.705 79.079 624.467 79.346 625.253 79.348 C 625.474 79.346 625.694 79.324 625.91 79.282 C 626.161 78.479 626.491 77.71 626.874 76.975 L 626.653 77.013 L 626.475 77.179 C 625.778 77.797 624.729 77.797 624.032 77.179 L 623.854 77.013 L 623.613 76.971 C 619.181 76.183 615.954 72.328 615.957 67.826 L 615.957 66.671 L 614.424 66.671 C 614.164 66.671 613.95 66.479 613.95 66.248 C 613.95 65.983 613.867 65.69 613.704 65.145 C 613.596 64.788 613.421 64.191 613.421 63.967 C 613.421 63.63 613.692 63.35 614.045 63.299 C 614.141 63.342 614.329 63.442 614.686 63.646 L 615.957 64.397 L 615.957 61.642 C 615.957 57.483 620.433 55.684 622.718 55.684 C 627.495 55.684 630.272 54.04 631.301 53.283 C 632.249 53.769 634.55 55.334 634.55 59.064 L 634.55 64.396 L 635.821 63.647 C 636.178 63.442 636.365 63.342 636.462 63.3 C 636.815 63.346 637.085 63.63 637.085 63.967 C 637.085 64.195 636.908 64.788 636.801 65.145 C 636.64 65.69 636.557 65.987 636.557 66.248 C 636.557 66.482 636.343 66.671 636.081 66.671 L 634.55 66.671 L 634.55 67.829 C 634.55 68.668 634.438 69.487 634.223 70.266 C 634.827 70.024 635.447 69.824 636.079 69.668 C 636.152 69.236 636.207 68.8 636.227 68.358 C 637.352 68.282 638.247 67.367 638.247 66.284 C 638.258 66.185 638.353 65.862 638.422 65.628 C 638.597 65.043 638.776 64.439 638.776 63.967 C 638.776 63.276 638.466 62.659 637.98 62.227 C 638.135 61.329 638.776 57.519 638.776 54.838 C 638.776 51.801 637.64 49.626 636.108 48.275 C 634.731 47.067 633.114 46.581 631.681 46.479 C 631.45 46.113 631.041 45.538 630.192 44.875 C 628.974 43.928 627.02 43.006 624.177 43.006 Z  M 624.177 44.697 C 626.66 44.697 628.201 45.466 629.149 46.21 C 630.099 46.952 630.413 47.605 630.413 47.605 L 630.645 48.077 L 631.169 48.077 C 632.295 48.077 633.81 48.507 634.989 49.546 C 636.171 50.586 637.085 52.211 637.085 54.838 C 637.085 57.196 636.524 60.636 636.359 61.6 L 636.346 61.6 C 636.31 61.6 636.277 61.6 636.24 61.603 L 636.24 59.064 C 636.24 54.363 633.101 52.062 631.436 51.5 L 630.955 51.34 L 630.585 51.695 C 630.561 51.716 628.123 53.993 622.718 53.993 C 619.777 53.993 614.293 56.229 614.266 61.603 C 614.23 61.6 614.197 61.6 614.161 61.6 C 614.141 61.6 614.121 61.606 614.102 61.606 C 613.8 60.144 613.649 58.655 613.652 57.163 C 613.652 54.951 612.86 53.482 612.031 52.63 C 611.678 52.267 611.599 52.329 611.292 52.148 C 611.876 51.461 612.962 50.243 614.812 48.734 C 617.323 46.685 620.717 44.697 624.177 44.697 Z  M 620.605 63.29 C 619.905 63.29 619.337 63.858 619.337 64.558 C 619.337 65.258 619.905 65.825 620.605 65.825 C 621.305 65.825 621.873 65.258 621.873 64.558 C 621.873 63.858 621.305 63.29 620.605 63.29 Z  M 629.902 63.29 C 629.202 63.29 628.634 63.858 628.634 64.558 C 628.634 65.258 629.202 65.825 629.902 65.825 C 630.602 65.825 631.169 65.258 631.169 64.558 C 631.169 63.858 630.602 63.29 629.902 63.29 Z  M 639.621 71.741 C 633.097 71.741 627.789 77.05 627.789 83.573 C 627.789 90.097 633.097 95.406 639.621 95.406 C 642.579 95.406 645.279 94.307 647.359 92.503 L 648.931 94.079 L 648.732 94.276 C 648.016 95.001 648.016 96.167 648.732 96.891 L 654.312 102.47 C 655.037 103.185 656.202 103.185 656.927 102.47 L 658.518 100.88 C 659.233 100.155 659.233 98.99 658.518 98.265 L 652.939 92.685 C 652.591 92.341 652.121 92.148 651.631 92.148 C 651.155 92.148 650.68 92.328 650.324 92.685 L 650.126 92.884 L 648.551 91.312 C 650.354 89.233 651.453 86.532 651.453 83.573 C 651.453 77.05 646.145 71.741 639.621 71.741 Z  M 639.621 73.432 C 645.233 73.432 649.763 77.962 649.763 83.573 C 649.763 89.185 645.233 93.715 639.621 93.715 C 634.009 93.715 629.479 89.185 629.479 83.573 C 629.479 77.962 634.009 73.432 639.621 73.432 Z  M 639.621 75.122 C 639.156 75.122 638.776 75.502 638.776 75.967 C 638.776 76.432 639.156 76.812 639.621 76.812 C 640.086 76.812 640.466 76.432 640.466 75.967 C 640.466 75.502 640.086 75.122 639.621 75.122 Z  M 635.795 76.139 C 635.654 76.142 635.516 76.182 635.395 76.255 C 635.2 76.365 635.057 76.549 634.999 76.766 C 634.94 76.982 634.971 77.213 635.085 77.406 C 635.236 77.668 635.515 77.828 635.816 77.828 C 636.118 77.828 636.397 77.667 636.547 77.406 C 636.698 77.144 636.698 76.822 636.547 76.561 C 636.393 76.293 636.104 76.131 635.795 76.139 Z  M 643.384 76.142 C 642.964 76.159 642.621 76.482 642.578 76.9 C 642.535 77.318 642.805 77.704 643.213 77.806 C 643.621 77.909 644.042 77.696 644.201 77.307 C 644.36 76.918 644.209 76.471 643.847 76.258 C 643.707 76.176 643.546 76.136 643.384 76.142 Z  M 646.188 78.925 C 645.889 78.933 645.617 79.097 645.471 79.356 C 645.325 79.616 645.326 79.934 645.474 80.193 C 645.587 80.385 645.771 80.527 645.99 80.586 C 646.204 80.645 646.434 80.615 646.63 80.5 C 646.825 80.39 646.967 80.205 647.023 79.988 C 647.083 79.772 647.052 79.54 646.936 79.348 C 646.783 79.081 646.496 78.919 646.188 78.925 L 646.188 78.925 Z  M 632.992 78.925 C 632.616 78.942 632.296 79.205 632.207 79.57 C 632.118 79.936 632.282 80.316 632.609 80.503 C 632.803 80.616 633.034 80.646 633.251 80.588 C 633.468 80.53 633.652 80.388 633.764 80.193 C 633.877 79.999 633.909 79.769 633.85 79.552 C 633.792 79.335 633.649 79.151 633.454 79.041 C 633.314 78.959 633.154 78.918 632.992 78.925 L 632.992 78.925 Z  M 632.015 82.728 C 631.55 82.728 631.169 83.109 631.169 83.573 C 631.169 84.038 631.55 84.419 632.015 84.419 C 632.479 84.419 632.86 84.038 632.86 83.573 C 632.86 83.109 632.479 82.728 632.015 82.728 Z  M 647.227 82.728 C 646.762 82.728 646.382 83.109 646.382 83.573 C 646.382 84.038 646.762 84.419 647.227 84.419 C 647.692 84.419 648.072 84.038 648.072 83.573 C 648.072 83.109 647.692 82.728 647.227 82.728 Z  M 633.015 86.532 C 632.593 86.538 632.241 86.855 632.19 87.274 C 632.139 87.693 632.405 88.085 632.813 88.192 C 633.03 88.252 633.261 88.221 633.454 88.106 C 633.649 87.996 633.792 87.812 633.85 87.595 C 633.909 87.378 633.877 87.148 633.764 86.954 C 633.612 86.685 633.324 86.523 633.015 86.532 Z  M 646.167 86.535 C 645.88 86.548 645.62 86.706 645.474 86.954 C 645.362 87.148 645.332 87.379 645.39 87.596 C 645.448 87.813 645.59 87.997 645.785 88.109 C 645.978 88.222 646.209 88.253 646.425 88.194 C 646.641 88.136 646.825 87.994 646.936 87.799 C 647.091 87.532 647.088 87.202 646.927 86.939 C 646.767 86.675 646.476 86.52 646.167 86.535 Z  M 643.401 89.315 C 643.027 89.326 642.704 89.581 642.606 89.942 C 642.519 90.272 642.639 90.622 642.91 90.829 C 643.182 91.037 643.551 91.06 643.847 90.889 C 644.04 90.777 644.181 90.593 644.239 90.377 C 644.296 90.16 644.265 89.93 644.153 89.737 C 643.998 89.469 643.71 89.307 643.4 89.315 L 643.401 89.315 Z  M 635.778 89.318 C 635.49 89.331 635.229 89.491 635.085 89.741 C 634.973 89.934 634.942 90.165 635 90.381 C 635.059 90.597 635.201 90.781 635.395 90.892 C 635.589 91.005 635.819 91.035 636.035 90.978 C 636.251 90.92 636.435 90.779 636.547 90.586 C 636.702 90.318 636.698 89.988 636.538 89.724 C 636.378 89.46 636.087 89.304 635.778 89.318 L 635.778 89.318 Z  M 608.35 90.335 C 607.886 90.335 607.505 90.715 607.505 91.18 C 607.505 91.645 607.886 92.025 608.35 92.025 C 608.815 92.025 609.196 91.645 609.196 91.18 C 609.196 90.715 608.815 90.335 608.35 90.335 Z  M 611.731 90.335 C 611.266 90.335 610.886 90.715 610.886 91.18 C 610.886 91.645 611.266 92.025 611.731 92.025 C 612.196 92.025 612.576 91.645 612.576 91.18 C 612.576 90.715 612.196 90.335 611.731 90.335 Z  M 615.112 90.335 C 614.647 90.335 614.266 90.715 614.266 91.18 C 614.266 91.645 614.647 92.025 615.112 92.025 C 615.576 92.025 615.957 91.645 615.957 91.18 C 615.957 90.715 615.576 90.335 615.112 90.335 Z  M 618.492 90.335 C 618.027 90.335 617.647 90.715 617.647 91.18 C 617.647 91.645 618.027 92.025 618.492 92.025 C 618.957 92.025 619.337 91.645 619.337 91.18 C 619.337 90.715 618.957 90.335 618.492 90.335 Z  M 621.873 90.335 C 621.408 90.335 621.028 90.715 621.028 91.18 C 621.028 91.645 621.408 92.025 621.873 92.025 C 622.338 92.025 622.718 91.645 622.718 91.18 C 622.718 90.715 622.338 90.335 621.873 90.335 Z  M 625.253 90.335 C 624.789 90.335 624.408 90.715 624.408 91.18 C 624.408 91.645 624.789 92.025 625.253 92.025 C 625.718 92.025 626.099 91.645 626.099 91.18 C 626.099 90.715 625.718 90.335 625.253 90.335 Z  M 639.621 90.335 C 639.156 90.335 638.776 90.715 638.776 91.18 C 638.776 91.645 639.156 92.025 639.621 92.025 C 640.086 92.025 640.466 91.645 640.466 91.18 C 640.466 90.715 640.086 90.335 639.621 90.335 Z  M 651.63 93.831 C 651.671 93.831 651.706 93.848 651.744 93.88 L 657.322 99.46 C 657.392 99.529 657.392 99.614 657.322 99.685 L 655.732 101.275 C 655.662 101.344 655.576 101.344 655.507 101.275 L 649.927 95.696 C 649.858 95.627 649.858 95.541 649.927 95.471 L 651.519 93.88 C 651.553 93.847 651.592 93.828 651.631 93.831 L 651.63 93.831 Z " fill="rgb(95,165,251)"/></svg>