<?xml version="1.0" standalone="no"?><!-- Generator: Gravit.io --><svg xmlns="http://www.w3.org/2000/svg" xmlns:xlink="http://www.w3.org/1999/xlink" style="isolation:isolate" viewBox="138.491 437.411 318.294 268.488" width="318.294" height="268.488"><g><g><path d=" M 402.095 476.603 L 402.095 476.603 Q 401.164 476.603 400.559 475.998 L 400.559 475.998 L 400.559 475.998 Q 399.953 475.393 399.953 474.461 L 399.953 474.461 L 399.953 469.619 L 399.953 469.619 Q 399.953 468.688 400.559 468.036 L 400.559 468.036 L 400.559 468.036 Q 401.164 467.385 402.095 467.385 L 402.095 467.385 L 407.589 467.385 L 407.589 467.385 Q 408.52 467.385 409.172 468.036 L 409.172 468.036 L 409.172 468.036 Q 409.824 468.688 409.824 469.619 L 409.824 469.619 L 409.824 474.461 L 409.824 474.461 Q 409.824 475.393 409.172 475.998 L 409.172 475.998 L 409.172 475.998 Q 408.52 476.603 407.589 476.603 L 407.589 476.603 L 402.095 476.603 L 402.095 476.603 Z  M 402.84 534.149 L 402.84 534.149 Q 401.909 534.149 401.303 533.544 L 401.303 533.544 L 401.303 533.544 Q 400.698 532.938 400.698 532.007 L 400.698 532.007 L 400.698 487.87 L 400.698 487.87 Q 400.698 486.939 401.303 486.334 L 401.303 486.334 L 401.303 486.334 Q 401.909 485.728 402.84 485.728 L 402.84 485.728 L 406.937 485.728 L 406.937 485.728 Q 407.868 485.728 408.473 486.334 L 408.473 486.334 L 408.473 486.334 Q 409.079 486.939 409.079 487.87 L 409.079 487.87 L 409.079 532.007 L 409.079 532.007 Q 409.079 532.938 408.473 533.544 L 408.473 533.544 L 408.473 533.544 Q 407.868 534.149 406.937 534.149 L 406.937 534.149 L 402.84 534.149 L 402.84 534.149 Z  M 343.418 534.149 L 343.418 534.149 Q 342.383 534.149 341.762 533.476 L 341.762 533.476 L 341.762 533.476 Q 341.142 532.804 341.142 531.769 L 341.142 531.769 L 341.142 464.208 L 341.142 464.208 Q 341.142 463.07 341.762 462.398 L 341.762 462.398 L 341.762 462.398 Q 342.383 461.725 343.418 461.725 L 343.418 461.725 L 371.663 461.725 L 371.663 461.725 Q 382.63 461.725 388.217 467.002 L 388.217 467.002 L 388.217 467.002 Q 393.804 472.278 393.804 480.762 L 393.804 480.762 L 393.804 480.762 Q 393.804 486.556 391.114 490.436 L 391.114 490.436 L 391.114 490.436 Q 388.424 494.316 384.803 496.075 L 384.803 496.075 L 384.803 496.075 Q 389.252 498.247 392.252 502.8 L 392.252 502.8 L 392.252 502.8 Q 395.253 507.352 395.253 513.249 L 395.253 513.249 L 395.253 513.249 Q 395.253 519.043 392.614 523.803 L 392.614 523.803 L 392.614 523.803 Q 389.976 528.562 384.803 531.355 L 384.803 531.355 L 384.803 531.355 Q 379.63 534.149 372.491 534.149 L 372.491 534.149 L 343.418 534.149 L 343.418 534.149 Z  M 350.867 492.453 L 370.111 492.453 L 370.111 492.453 Q 376.836 492.453 380.354 489.401 L 380.354 489.401 L 380.354 489.401 Q 383.872 486.349 383.872 480.866 L 383.872 480.866 L 383.872 480.866 Q 383.872 475.486 380.406 472.692 L 380.406 472.692 L 380.406 472.692 Q 376.94 469.899 370.111 469.899 L 370.111 469.899 L 350.867 469.899 L 350.867 492.453 L 350.867 492.453 Z  M 350.867 525.975 L 371.146 525.975 L 371.146 525.975 Q 377.767 525.975 381.544 522.406 L 381.544 522.406 L 381.544 522.406 Q 385.32 518.836 385.32 513.249 L 385.32 513.249 L 385.32 513.249 Q 385.32 507.559 381.544 504.041 L 381.544 504.041 L 381.544 504.041 Q 377.767 500.524 371.146 500.524 L 371.146 500.524 L 350.867 500.524 L 350.867 525.975 L 350.867 525.975 Z  M 325.402 476.603 L 325.402 476.603 Q 324.47 476.603 323.865 475.998 L 323.865 475.998 L 323.865 475.998 Q 323.26 475.393 323.26 474.461 L 323.26 474.461 L 323.26 469.619 L 323.26 469.619 Q 323.26 468.688 323.865 468.036 L 323.865 468.036 L 323.865 468.036 Q 324.47 467.385 325.402 467.385 L 325.402 467.385 L 330.895 467.385 L 330.895 467.385 Q 331.827 467.385 332.478 468.036 L 332.478 468.036 L 332.478 468.036 Q 333.13 468.688 333.13 469.619 L 333.13 469.619 L 333.13 474.461 L 333.13 474.461 Q 333.13 475.393 332.478 475.998 L 332.478 475.998 L 332.478 475.998 Q 331.827 476.603 330.895 476.603 L 330.895 476.603 L 325.402 476.603 L 325.402 476.603 Z  M 326.146 534.149 L 326.146 534.149 Q 325.215 534.149 324.61 533.544 L 324.61 533.544 L 324.61 533.544 Q 324.005 532.938 324.005 532.007 L 324.005 532.007 L 324.005 487.87 L 324.005 487.87 Q 324.005 486.939 324.61 486.334 L 324.61 486.334 L 324.61 486.334 Q 325.215 485.728 326.146 485.728 L 326.146 485.728 L 330.244 485.728 L 330.244 485.728 Q 331.175 485.728 331.78 486.334 L 331.78 486.334 L 331.78 486.334 Q 332.385 486.939 332.385 487.87 L 332.385 487.87 L 332.385 532.007 L 332.385 532.007 Q 332.385 532.938 331.78 533.544 L 331.78 533.544 L 331.78 533.544 Q 331.175 534.149 330.244 534.149 L 330.244 534.149 L 326.146 534.149 L 326.146 534.149 Z  M 292.383 535.183 L 292.383 535.183 Q 283.899 535.183 277.64 532.493 L 277.64 532.493 L 277.64 532.493 Q 271.38 529.803 268.121 525.406 L 268.121 525.406 L 268.121 525.406 Q 264.862 521.009 264.655 515.939 L 264.655 515.939 L 264.655 515.939 Q 264.655 515.112 265.276 514.491 L 265.276 514.491 L 265.276 514.491 Q 265.897 513.87 266.828 513.87 L 266.828 513.87 L 271.898 513.87 L 271.898 513.87 Q 273.76 513.87 274.484 515.939 L 274.484 515.939 L 274.484 515.939 Q 275.415 520.285 279.813 523.44 L 279.813 523.44 L 279.813 523.44 Q 284.21 526.596 292.383 526.596 L 292.383 526.596 L 292.383 526.596 Q 301.178 526.596 305.523 523.492 L 305.523 523.492 L 305.523 523.492 Q 309.868 520.388 309.868 514.905 L 309.868 514.905 L 309.868 514.905 Q 309.868 511.387 307.747 509.111 L 307.747 509.111 L 307.747 509.111 Q 305.626 506.835 301.436 505.128 L 301.436 505.128 L 301.436 505.128 Q 297.246 503.421 288.865 500.937 L 288.865 500.937 L 288.865 500.937 Q 280.899 498.661 276.191 496.075 L 276.191 496.075 L 276.191 496.075 Q 271.484 493.488 269.104 489.712 L 269.104 489.712 L 269.104 489.712 Q 266.725 485.935 266.725 480.141 L 266.725 480.141 L 266.725 480.141 Q 266.725 474.554 269.725 470.157 L 269.725 470.157 L 269.725 470.157 Q 272.725 465.76 278.416 463.225 L 278.416 463.225 L 278.416 463.225 Q 284.106 460.691 291.866 460.691 L 291.866 460.691 L 291.866 460.691 Q 299.936 460.691 305.678 463.536 L 305.678 463.536 L 305.678 463.536 Q 311.42 466.381 314.421 470.675 L 314.421 470.675 L 314.421 470.675 Q 317.421 474.968 317.628 479.314 L 317.628 479.314 L 317.628 479.314 Q 317.628 480.245 317.007 480.866 L 317.007 480.866 L 317.007 480.866 Q 316.386 481.486 315.455 481.486 L 315.455 481.486 L 310.282 481.486 L 310.282 481.486 Q 309.455 481.486 308.73 480.969 L 308.73 480.969 L 308.73 480.969 Q 308.006 480.452 307.696 479.417 L 307.696 479.417 L 307.696 479.417 Q 307.075 474.968 302.729 472.071 L 302.729 472.071 L 302.729 472.071 Q 298.384 469.174 291.866 469.174 L 291.866 469.174 L 291.866 469.174 Q 284.83 469.174 280.692 471.916 L 280.692 471.916 L 280.692 471.916 Q 276.553 474.658 276.553 480.038 L 276.553 480.038 L 276.553 480.038 Q 276.553 483.659 278.467 485.935 L 278.467 485.935 L 278.467 485.935 Q 280.382 488.212 284.365 489.97 L 284.365 489.97 L 284.365 489.97 Q 288.348 491.729 296.004 494.005 L 296.004 494.005 L 296.004 494.005 Q 304.799 496.489 309.817 498.972 L 309.817 498.972 L 309.817 498.972 Q 314.835 501.455 317.318 505.128 L 317.318 505.128 L 317.318 505.128 Q 319.801 508.801 319.801 514.594 L 319.801 514.594 L 319.801 514.594 Q 319.801 524.32 312.403 529.752 L 312.403 529.752 L 312.403 529.752 Q 305.006 535.183 292.383 535.183 L 292.383 535.183 L 292.383 535.183 Z " fill-rule="evenodd" fill="rgb(227,242,253)"/><g><circle vector-effect="non-scaling-stroke" cx="188.86218611889836" cy="488.7126202958752" r="30.048012595141955" fill="rgb(227,242,253)"/><g><path d=" M 210.158 449.407 L 210.325 449.322 L 249.285 498.124 C 245.661 514.801 234.86 529.779 218.484 538.126 C 206.386 544.293 193.147 545.871 180.755 543.506 L 143.088 495.924 C 155.002 497.853 167.612 496.152 179.179 490.256 C 195.832 481.767 206.719 466.422 210.158 449.407 Z " fill="rgb(33,150,243)"/><path d=" M 248.789 499.045 L 249.294 499.615 C 247.292 517.617 237.048 534.464 220.164 544.191 C 215.337 546.971 210.279 548.991 205.128 550.287 L 200.071 544.531 C 206.181 543.614 212.248 541.711 218.053 538.752 C 234.332 530.454 245.102 515.603 248.789 499.045 Z " fill="rgb(30,136,229)"/></g></g></g><g><g><path d=" M 376.126 581.255 L 379.633 581.255 L 379.633 609.533 L 376.798 609.533 L 376.313 607.182 L 376.313 607.182 Q 374.186 609.868 370.642 609.868 L 370.642 609.868 L 370.642 609.868 Q 366.651 609.868 364.431 607.388 L 364.431 607.388 L 364.431 607.388 Q 362.211 604.907 362.211 600.281 L 362.211 600.281 L 362.211 600.281 Q 362.211 595.469 364.841 592.764 L 364.841 592.764 L 364.841 592.764 Q 367.471 590.059 372.06 590.059 L 372.06 590.059 L 372.06 590.059 Q 374.037 590.059 376.126 590.582 L 376.126 590.582 L 376.126 581.255 L 376.126 581.255 Z  M 370.866 607.108 L 370.866 607.108 Q 372.806 607.108 374.205 606.045 L 374.205 606.045 L 374.205 606.045 Q 375.604 604.981 376.126 603.079 L 376.126 603.079 L 376.126 593.379 L 376.126 593.379 Q 374.224 592.82 372.097 592.82 L 372.097 592.82 L 372.097 592.82 Q 369.15 592.82 367.471 594.778 L 367.471 594.778 L 367.471 594.778 Q 365.793 596.737 365.793 600.281 L 365.793 600.281 L 365.793 600.281 Q 365.793 603.564 367.117 605.336 L 367.117 605.336 L 367.117 605.336 Q 368.441 607.108 370.866 607.108 L 370.866 607.108 L 370.866 607.108 Z  M 384.333 599.945 L 384.333 599.945 Q 384.333 595.245 386.684 592.652 L 386.684 592.652 L 386.684 592.652 Q 389.034 590.059 393.324 590.059 L 393.324 590.059 L 393.324 590.059 Q 397.539 590.059 399.423 592.577 L 399.423 592.577 L 399.423 592.577 Q 401.307 595.096 401.307 599.833 L 401.307 599.833 L 401.307 600.43 L 387.915 600.43 L 387.915 600.43 Q 387.989 603.676 389.444 605.392 L 389.444 605.392 L 389.444 605.392 Q 390.899 607.108 393.622 607.108 L 393.622 607.108 L 393.622 607.108 Q 395.115 607.108 396.495 606.753 L 396.495 606.753 L 396.495 606.753 Q 397.875 606.399 399.554 605.653 L 399.554 605.653 L 400.561 608.04 L 400.561 608.04 Q 398.659 609.01 396.942 609.439 L 396.942 609.439 L 396.942 609.439 Q 395.226 609.868 393.436 609.868 L 393.436 609.868 L 393.436 609.868 Q 389.108 609.868 386.721 607.257 L 386.721 607.257 L 386.721 607.257 Q 384.333 604.646 384.333 599.945 L 384.333 599.945 L 384.333 599.945 Z  M 393.324 592.82 L 393.324 592.82 Q 391.123 592.82 389.799 594.088 L 389.799 594.088 L 389.799 594.088 Q 388.474 595.357 388.064 597.819 L 388.064 597.819 L 397.614 597.819 L 397.614 597.819 Q 397.353 595.245 396.308 594.032 L 396.308 594.032 L 396.308 594.032 Q 395.264 592.82 393.324 592.82 L 393.324 592.82 L 393.324 592.82 Z  M 143.995 603.415 L 143.995 603.415 Q 144.443 603.582 146.29 604.366 L 146.29 604.366 L 146.29 604.366 Q 148.136 605.149 150.179 605.625 L 150.179 605.625 L 150.179 605.625 Q 152.221 606.101 154.236 606.101 L 154.236 606.101 L 154.236 606.101 Q 157.985 606.101 160.167 604.282 L 160.167 604.282 L 160.167 604.282 Q 162.35 602.463 162.35 599.274 L 162.35 599.274 L 162.35 599.274 Q 162.35 597.091 161.258 595.748 L 161.258 595.748 L 161.258 595.748 Q 160.167 594.405 158.488 593.678 L 158.488 593.678 L 158.488 593.678 Q 156.81 592.95 154.012 592.111 L 154.012 592.111 L 154.012 592.111 Q 150.487 591.048 148.388 590.041 L 148.388 590.041 L 148.388 590.041 Q 146.29 589.033 144.807 586.907 L 144.807 586.907 L 144.807 586.907 Q 143.324 584.781 143.324 581.199 L 143.324 581.199 L 143.324 581.199 Q 143.324 576.219 146.709 573.141 L 146.709 573.141 L 146.709 573.141 Q 150.095 570.064 156.81 570.064 L 156.81 570.064 L 156.81 570.064 Q 161.398 570.064 166.602 572.246 L 166.602 572.246 L 165.315 576.555 L 165.315 576.555 Q 160.559 574.596 156.978 574.596 L 156.978 574.596 L 156.978 574.596 Q 153.117 574.596 150.99 576.191 L 150.99 576.191 L 150.99 576.191 Q 148.864 577.786 148.92 580.528 L 148.92 580.528 L 148.92 580.528 Q 148.92 582.654 150.011 583.941 L 150.011 583.941 L 150.011 583.941 Q 151.102 585.228 152.697 585.956 L 152.697 585.956 L 152.697 585.956 Q 154.292 586.683 156.978 587.523 L 156.978 587.523 L 156.978 587.523 Q 160.559 588.642 162.685 589.761 L 162.685 589.761 L 162.685 589.761 Q 164.812 590.88 166.35 593.146 L 166.35 593.146 L 166.35 593.146 Q 167.889 595.413 167.889 599.274 L 167.889 599.274 L 167.889 599.274 Q 167.889 604.758 164.224 607.695 L 164.224 607.695 L 164.224 607.695 Q 160.559 610.633 154.46 610.633 L 154.46 610.633 L 154.46 610.633 Q 150.934 610.633 148.276 609.878 L 148.276 609.878 L 148.276 609.878 Q 145.618 609.122 142.485 607.835 L 142.485 607.835 L 143.995 603.415 L 143.995 603.415 Z  M 175.332 574.82 L 175.332 569.952 L 180.48 569.952 L 180.48 574.82 L 175.332 574.82 L 175.332 574.82 Z  M 175.332 609.57 L 175.332 580.808 L 180.48 580.808 L 180.48 609.57 L 175.332 609.57 L 175.332 609.57 Z  M 189.713 603.638 L 189.713 603.638 Q 192.231 604.702 194.05 605.205 L 194.05 605.205 L 194.05 605.205 Q 195.868 605.709 197.827 605.709 L 197.827 605.709 L 197.827 605.709 Q 200.345 605.709 201.772 604.646 L 201.772 604.646 L 201.772 604.646 Q 203.199 603.582 203.199 601.512 L 203.199 601.512 L 203.199 601.512 Q 203.199 600.225 202.443 599.414 L 202.443 599.414 L 202.443 599.414 Q 201.688 598.602 200.764 598.211 L 200.764 598.211 L 200.764 598.211 Q 199.841 597.819 197.323 596.979 L 197.323 596.979 L 197.323 596.979 Q 196.931 596.868 194.357 595.972 L 194.357 595.972 L 194.357 595.972 Q 191.783 595.077 190.412 593.174 L 190.412 593.174 L 190.412 593.174 Q 189.041 591.272 189.041 588.474 L 189.041 588.474 L 189.041 588.474 Q 189.041 585.005 191.727 582.654 L 191.727 582.654 L 191.727 582.654 Q 194.413 580.304 199.617 580.304 L 199.617 580.304 L 199.617 580.304 Q 201.8 580.304 203.73 580.808 L 203.73 580.808 L 203.73 580.808 Q 205.661 581.311 207.787 582.151 L 207.787 582.151 L 206.388 586.292 L 206.388 586.292 Q 204.542 585.564 202.947 585.116 L 202.947 585.116 L 202.947 585.116 Q 201.352 584.669 199.617 584.669 L 199.617 584.669 L 199.617 584.669 Q 196.987 584.669 195.644 585.704 L 195.644 585.704 L 195.644 585.704 Q 194.301 586.739 194.301 588.418 L 194.301 588.418 L 194.301 588.418 Q 194.301 589.985 195.365 590.74 L 195.365 590.74 L 195.365 590.74 Q 196.428 591.496 198.778 592.335 L 198.778 592.335 L 198.778 592.335 Q 199.393 592.503 199.897 592.727 L 199.897 592.727 L 201.24 593.23 L 201.24 593.23 Q 203.59 594.014 205.017 594.797 L 205.017 594.797 L 205.017 594.797 Q 206.444 595.58 207.451 597.175 L 207.451 597.175 L 207.451 597.175 Q 208.459 598.77 208.459 601.4 L 208.459 601.4 L 208.459 601.4 Q 208.459 605.541 205.521 607.807 L 205.521 607.807 L 205.521 607.807 Q 202.583 610.074 197.883 610.074 L 197.883 610.074 L 197.883 610.074 Q 195.141 610.074 192.79 609.486 L 192.79 609.486 L 192.79 609.486 Q 190.44 608.898 188.09 607.891 L 188.09 607.891 L 189.713 603.638 L 189.713 603.638 Z  M 218.083 584.837 L 213.047 584.837 L 213.047 580.808 L 218.531 580.808 L 219.426 572.414 L 223.343 572.414 L 223.343 580.808 L 232.129 580.808 L 232.129 584.837 L 223.343 584.837 L 223.343 600.729 L 223.343 600.729 Q 223.343 605.709 227.54 605.709 L 227.54 605.709 L 227.54 605.709 Q 229.219 605.709 231.681 604.925 L 231.681 604.925 L 232.576 608.619 L 232.576 608.619 Q 229.499 609.906 226.589 609.906 L 226.589 609.906 L 226.589 609.906 Q 222.84 609.906 220.462 607.667 L 220.462 607.667 L 220.462 607.667 Q 218.083 605.429 218.083 601.008 L 218.083 601.008 L 218.083 584.837 L 218.083 584.837 Z  M 236.549 595.133 L 236.549 595.133 Q 236.549 588.082 240.075 584.193 L 240.075 584.193 L 240.075 584.193 Q 243.6 580.304 250.035 580.304 L 250.035 580.304 L 250.035 580.304 Q 256.358 580.304 259.184 584.081 L 259.184 584.081 L 259.184 584.081 Q 262.01 587.858 262.01 594.965 L 262.01 594.965 L 262.01 595.86 L 241.921 595.86 L 241.921 595.86 Q 242.033 600.729 244.216 603.303 L 244.216 603.303 L 244.216 603.303 Q 246.398 605.877 250.483 605.877 L 250.483 605.877 L 250.483 605.877 Q 252.721 605.877 254.792 605.345 L 254.792 605.345 L 254.792 605.345 Q 256.862 604.814 259.38 603.694 L 259.38 603.694 L 260.891 607.276 L 260.891 607.276 Q 258.037 608.731 255.463 609.374 L 255.463 609.374 L 255.463 609.374 Q 252.889 610.018 250.203 610.018 L 250.203 610.018 L 250.203 610.018 Q 243.712 610.018 240.131 606.101 L 240.131 606.101 L 240.131 606.101 Q 236.549 602.183 236.549 595.133 L 236.549 595.133 L 236.549 595.133 Z  M 250.035 584.445 L 250.035 584.445 Q 246.734 584.445 244.747 586.347 L 244.747 586.347 L 244.747 586.347 Q 242.761 588.25 242.145 591.943 L 242.145 591.943 L 256.47 591.943 L 256.47 591.943 Q 256.079 588.082 254.512 586.264 L 254.512 586.264 L 254.512 586.264 Q 252.945 584.445 250.035 584.445 L 250.035 584.445 L 250.035 584.445 Z  M 301.964 580.304 L 301.964 580.304 Q 306.832 580.304 309.294 582.906 L 309.294 582.906 L 309.294 582.906 Q 311.756 585.508 311.756 590.544 L 311.756 590.544 L 311.756 609.57 L 306.496 609.57 L 306.496 590.936 L 306.496 590.936 Q 306.496 587.523 305.181 585.984 L 305.181 585.984 L 305.181 585.984 Q 303.866 584.445 300.957 584.445 L 300.957 584.445 L 300.957 584.445 Q 298.438 584.445 296.284 585.648 L 296.284 585.648 L 296.284 585.648 Q 294.13 586.851 292.843 588.977 L 292.843 588.977 L 292.843 588.977 Q 292.899 589.481 292.899 590.544 L 292.899 590.544 L 292.899 609.57 L 287.639 609.57 L 287.639 590.936 L 287.639 590.936 Q 287.639 587.523 286.324 585.984 L 286.324 585.984 L 286.324 585.984 Q 285.009 584.445 282.099 584.445 L 282.099 584.445 L 282.099 584.445 Q 279.581 584.445 277.454 585.648 L 277.454 585.648 L 277.454 585.648 Q 275.328 586.851 273.985 588.922 L 273.985 588.922 L 273.985 609.57 L 268.725 609.57 L 268.725 580.808 L 273.034 580.808 L 273.593 584.725 L 273.593 584.725 Q 277.342 580.304 283.106 580.304 L 283.106 580.304 L 283.106 580.304 Q 289.877 580.304 292.003 585.34 L 292.003 585.34 L 292.003 585.34 Q 295.808 580.304 301.964 580.304 L 301.964 580.304 L 301.964 580.304 Z  M 318.527 601.792 L 318.527 601.792 Q 318.527 597.203 322.22 594.685 L 322.22 594.685 L 322.22 594.685 Q 325.914 592.167 332.684 592.167 L 332.684 592.167 L 336.937 592.167 L 336.937 591.048 L 336.937 591.048 Q 336.937 587.467 335.454 585.956 L 335.454 585.956 L 335.454 585.956 Q 333.972 584.445 330.39 584.445 L 330.39 584.445 L 330.39 584.445 Q 328.096 584.445 326.305 584.865 L 326.305 584.865 L 326.305 584.865 Q 324.515 585.284 321.717 586.515 L 321.717 586.515 L 320.15 582.878 L 320.15 582.878 Q 325.41 580.304 330.502 580.304 L 330.502 580.304 L 330.502 580.304 Q 336.602 580.304 339.399 582.906 L 339.399 582.906 L 339.399 582.906 Q 342.197 585.508 342.197 591.16 L 342.197 591.16 L 342.197 609.57 L 338.112 609.57 L 338.112 609.57 Q 338.056 609.346 337.889 608.479 L 337.889 608.479 L 337.889 608.479 Q 337.721 607.611 337.385 606.212 L 337.385 606.212 L 337.385 606.212 Q 333.356 610.241 327.984 610.241 L 327.984 610.241 L 327.984 610.241 Q 323.675 610.241 321.101 607.947 L 321.101 607.947 L 321.101 607.947 Q 318.527 605.653 318.527 601.792 L 318.527 601.792 L 318.527 601.792 Z  M 323.787 601.68 L 323.787 601.68 Q 323.787 603.806 325.13 604.953 L 325.13 604.953 L 325.13 604.953 Q 326.473 606.101 328.991 606.101 L 328.991 606.101 L 328.991 606.101 Q 331.23 606.101 333.356 605.065 L 333.356 605.065 L 333.356 605.065 Q 335.482 604.03 336.937 602.239 L 336.937 602.239 L 336.937 596.084 L 333.02 596.084 L 333.02 596.084 Q 328.432 596.084 326.109 597.483 L 326.109 597.483 L 326.109 597.483 Q 323.787 598.882 323.787 601.68 L 323.787 601.68 L 323.787 601.68 Z " fill-rule="evenodd" fill="rgb(227,242,253)"/><path d=" M 162.496 646.527 L 162.496 646.527 Q 166.301 647.59 168.232 649.912 L 168.232 649.912 L 168.232 649.912 Q 170.163 652.234 170.163 655.648 L 170.163 655.648 L 170.163 655.648 Q 170.163 661.132 166.665 664.237 L 166.665 664.237 L 166.665 664.237 Q 163.168 667.343 156.565 667.343 L 156.565 667.343 L 143.247 667.343 L 143.247 627.725 L 154.942 627.725 L 154.942 627.725 Q 161.713 627.725 165.126 630.467 L 165.126 630.467 L 165.126 630.467 Q 168.54 633.209 168.54 638.245 L 168.54 638.245 L 168.54 638.245 Q 168.54 644.232 162.496 646.527 L 162.496 646.527 L 162.496 646.527 Z  M 154.942 632.202 L 148.563 632.202 L 148.563 644.624 L 154.942 644.624 L 154.942 644.624 Q 158.859 644.624 160.902 643.029 L 160.902 643.029 L 160.902 643.029 Q 162.944 641.435 162.944 638.245 L 162.944 638.245 L 162.944 638.245 Q 162.944 632.202 154.942 632.202 L 154.942 632.202 L 154.942 632.202 Z  M 156.565 662.866 L 156.565 662.866 Q 160.426 662.866 162.496 661.02 L 162.496 661.02 L 162.496 661.02 Q 164.567 659.173 164.567 655.648 L 164.567 655.648 L 164.567 655.648 Q 164.567 652.402 162.301 650.752 L 162.301 650.752 L 162.301 650.752 Q 160.034 649.101 155.726 649.101 L 155.726 649.101 L 148.563 649.101 L 148.563 662.866 L 156.565 662.866 L 156.565 662.866 Z  M 177.549 632.593 L 177.549 627.725 L 182.697 627.725 L 182.697 632.593 L 177.549 632.593 L 177.549 632.593 Z  M 177.549 667.343 L 177.549 638.581 L 182.697 638.581 L 182.697 667.343 L 177.549 667.343 L 177.549 667.343 Z  M 205.696 638.077 L 205.696 638.077 Q 211.683 638.077 215.013 641.798 L 215.013 641.798 L 215.013 641.798 Q 218.342 645.52 218.342 652.458 L 218.342 652.458 L 218.342 652.458 Q 218.342 659.677 214.397 663.734 L 214.397 663.734 L 214.397 663.734 Q 210.452 667.791 203.569 667.791 L 203.569 667.791 L 203.569 667.791 Q 199.037 667.791 194.784 666.112 L 194.784 666.112 L 192.266 665.496 L 192.266 624.871 L 197.526 624.871 L 197.526 641.714 L 197.526 641.714 Q 200.548 638.077 205.696 638.077 L 205.696 638.077 L 205.696 638.077 Z  M 203.513 663.65 L 203.513 663.65 Q 207.934 663.65 210.452 660.712 L 210.452 660.712 L 210.452 660.712 Q 212.97 657.774 212.97 652.458 L 212.97 652.458 L 212.97 652.458 Q 212.97 647.534 210.984 644.876 L 210.984 644.876 L 210.984 644.876 Q 208.997 642.218 205.36 642.218 L 205.36 642.218 L 205.36 642.218 Q 202.45 642.218 200.38 643.785 L 200.38 643.785 L 200.38 643.785 Q 198.309 645.352 197.526 648.094 L 197.526 648.094 L 197.526 662.81 L 197.526 662.81 Q 200.38 663.65 203.513 663.65 L 203.513 663.65 L 203.513 663.65 Z  M 225.728 667.343 L 225.728 624.871 L 230.877 624.871 L 230.877 667.343 L 225.728 667.343 L 225.728 667.343 Z  M 240.501 632.593 L 240.501 627.725 L 245.649 627.725 L 245.649 632.593 L 240.501 632.593 L 240.501 632.593 Z  M 240.501 667.343 L 240.501 638.581 L 245.649 638.581 L 245.649 667.343 L 240.501 667.343 L 240.501 667.343 Z  M 253.036 652.906 L 253.036 652.906 Q 253.036 645.911 256.589 641.994 L 256.589 641.994 L 256.589 641.994 Q 260.142 638.077 266.689 638.077 L 266.689 638.077 L 266.689 638.077 Q 273.236 638.077 276.79 641.994 L 276.79 641.994 L 276.79 641.994 Q 280.343 645.911 280.343 652.906 L 280.343 652.906 L 280.343 652.906 Q 280.343 659.901 276.79 663.846 L 276.79 663.846 L 276.79 663.846 Q 273.236 667.791 266.689 667.791 L 266.689 667.791 L 266.689 667.791 Q 260.142 667.791 256.589 663.846 L 256.589 663.846 L 256.589 663.846 Q 253.036 659.901 253.036 652.906 L 253.036 652.906 L 253.036 652.906 Z  M 258.408 652.906 L 258.408 652.906 Q 258.408 658.166 260.562 660.908 L 260.562 660.908 L 260.562 660.908 Q 262.716 663.65 266.689 663.65 L 266.689 663.65 L 266.689 663.65 Q 270.662 663.65 272.817 660.908 L 272.817 660.908 L 272.817 660.908 Q 274.971 658.166 274.971 652.906 L 274.971 652.906 L 274.971 652.906 Q 274.971 647.646 272.817 644.932 L 272.817 644.932 L 272.817 644.932 Q 270.662 642.218 266.689 642.218 L 266.689 642.218 L 266.689 642.218 Q 262.716 642.218 260.562 644.932 L 260.562 644.932 L 260.562 644.932 Q 258.408 647.646 258.408 652.906 L 258.408 652.906 L 258.408 652.906 Z  M 289.576 642.61 L 284.54 642.61 L 284.54 638.581 L 290.024 638.581 L 290.919 630.187 L 294.836 630.187 L 294.836 638.581 L 303.621 638.581 L 303.621 642.61 L 294.836 642.61 L 294.836 658.502 L 294.836 658.502 Q 294.836 663.482 299.033 663.482 L 299.033 663.482 L 299.033 663.482 Q 300.712 663.482 303.174 662.699 L 303.174 662.699 L 304.069 666.392 L 304.069 666.392 Q 300.991 667.679 298.082 667.679 L 298.082 667.679 L 298.082 667.679 Q 294.333 667.679 291.954 665.44 L 291.954 665.44 L 291.954 665.44 Q 289.576 663.202 289.576 658.781 L 289.576 658.781 L 289.576 642.61 L 289.576 642.61 Z  M 308.042 652.906 L 308.042 652.906 Q 308.042 645.855 311.567 641.966 L 311.567 641.966 L 311.567 641.966 Q 315.093 638.077 321.528 638.077 L 321.528 638.077 L 321.528 638.077 Q 327.851 638.077 330.677 641.854 L 330.677 641.854 L 330.677 641.854 Q 333.503 645.631 333.503 652.738 L 333.503 652.738 L 333.503 653.633 L 313.414 653.633 L 313.414 653.633 Q 313.526 658.502 315.708 661.076 L 315.708 661.076 L 315.708 661.076 Q 317.891 663.65 321.976 663.65 L 321.976 663.65 L 321.976 663.65 Q 324.214 663.65 326.284 663.118 L 326.284 663.118 L 326.284 663.118 Q 328.355 662.587 330.873 661.467 L 330.873 661.467 L 332.384 665.049 L 332.384 665.049 Q 329.53 666.504 326.956 667.147 L 326.956 667.147 L 326.956 667.147 Q 324.382 667.791 321.696 667.791 L 321.696 667.791 L 321.696 667.791 Q 315.205 667.791 311.623 663.874 L 311.623 663.874 L 311.623 663.874 Q 308.042 659.957 308.042 652.906 L 308.042 652.906 L 308.042 652.906 Z  M 321.528 642.218 L 321.528 642.218 Q 318.226 642.218 316.24 644.121 L 316.24 644.121 L 316.24 644.121 Q 314.253 646.023 313.638 649.716 L 313.638 649.716 L 327.963 649.716 L 327.963 649.716 Q 327.571 645.855 326.005 644.037 L 326.005 644.037 L 326.005 644.037 Q 324.438 642.218 321.528 642.218 L 321.528 642.218 L 321.528 642.218 Z  M 338.203 652.906 L 338.203 652.906 Q 338.203 645.967 341.673 642.022 L 341.673 642.022 L 341.673 642.022 Q 345.142 638.077 351.969 638.077 L 351.969 638.077 L 351.969 638.077 Q 358.516 638.077 361.929 642.834 L 361.929 642.834 L 358.404 645.464 L 358.404 645.464 Q 357.061 643.841 355.522 643.029 L 355.522 643.029 L 355.522 643.029 Q 353.983 642.218 351.969 642.218 L 351.969 642.218 L 351.969 642.218 Q 347.996 642.218 345.786 644.932 L 345.786 644.932 L 345.786 644.932 Q 343.575 647.646 343.575 652.906 L 343.575 652.906 L 343.575 652.906 Q 343.575 658.222 345.841 660.936 L 345.841 660.936 L 345.841 660.936 Q 348.108 663.65 352.305 663.65 L 352.305 663.65 L 352.305 663.65 Q 354.655 663.65 356.278 663.118 L 356.278 663.118 L 356.278 663.118 Q 357.9 662.587 359.915 661.691 L 359.915 661.691 L 361.37 665.273 L 361.37 665.273 Q 357.229 667.679 351.913 667.679 L 351.913 667.679 L 351.913 667.679 Q 345.142 667.679 341.673 663.762 L 341.673 663.762 L 341.673 663.762 Q 338.203 659.845 338.203 652.906 L 338.203 652.906 L 338.203 652.906 Z  M 365.734 659.565 L 365.734 659.565 Q 365.734 654.976 369.428 652.458 L 369.428 652.458 L 369.428 652.458 Q 373.121 649.94 379.892 649.94 L 379.892 649.94 L 384.144 649.94 L 384.144 648.821 L 384.144 648.821 Q 384.144 645.24 382.662 643.729 L 382.662 643.729 L 382.662 643.729 Q 381.179 642.218 377.597 642.218 L 377.597 642.218 L 377.597 642.218 Q 375.303 642.218 373.513 642.638 L 373.513 642.638 L 373.513 642.638 Q 371.722 643.057 368.924 644.288 L 368.924 644.288 L 367.357 640.651 L 367.357 640.651 Q 372.617 638.077 377.709 638.077 L 377.709 638.077 L 377.709 638.077 Q 383.809 638.077 386.607 640.679 L 386.607 640.679 L 386.607 640.679 Q 389.404 643.281 389.404 648.933 L 389.404 648.933 L 389.404 667.343 L 385.32 667.343 L 385.32 667.343 Q 385.264 667.119 385.096 666.252 L 385.096 666.252 L 385.096 666.252 Q 384.928 665.384 384.592 663.986 L 384.592 663.986 L 384.592 663.986 Q 380.563 668.014 375.191 668.014 L 375.191 668.014 L 375.191 668.014 Q 370.883 668.014 368.308 665.72 L 368.308 665.72 L 368.308 665.72 Q 365.734 663.426 365.734 659.565 L 365.734 659.565 L 365.734 659.565 Z  M 370.994 659.453 L 370.994 659.453 Q 370.994 661.579 372.337 662.726 L 372.337 662.726 L 372.337 662.726 Q 373.68 663.874 376.198 663.874 L 376.198 663.874 L 376.198 663.874 Q 378.437 663.874 380.563 662.838 L 380.563 662.838 L 380.563 662.838 Q 382.69 661.803 384.144 660.013 L 384.144 660.013 L 384.144 653.857 L 380.227 653.857 L 380.227 653.857 Q 375.639 653.857 373.317 655.256 L 373.317 655.256 L 373.317 655.256 Q 370.994 656.655 370.994 659.453 L 370.994 659.453 L 370.994 659.453 Z  M 398.134 661.411 L 398.134 661.411 Q 400.652 662.475 402.471 662.978 L 402.471 662.978 L 402.471 662.978 Q 404.289 663.482 406.248 663.482 L 406.248 663.482 L 406.248 663.482 Q 408.766 663.482 410.193 662.419 L 410.193 662.419 L 410.193 662.419 Q 411.62 661.356 411.62 659.285 L 411.62 659.285 L 411.62 659.285 Q 411.62 657.998 410.864 657.187 L 410.864 657.187 L 410.864 657.187 Q 410.109 656.375 409.186 655.984 L 409.186 655.984 L 409.186 655.984 Q 408.262 655.592 405.744 654.753 L 405.744 654.753 L 405.744 654.753 Q 405.352 654.641 402.778 653.745 L 402.778 653.745 L 402.778 653.745 Q 400.204 652.85 398.833 650.947 L 398.833 650.947 L 398.833 650.947 Q 397.462 649.045 397.462 646.247 L 397.462 646.247 L 397.462 646.247 Q 397.462 642.778 400.148 640.427 L 400.148 640.427 L 400.148 640.427 Q 402.834 638.077 408.038 638.077 L 408.038 638.077 L 408.038 638.077 Q 410.221 638.077 412.151 638.581 L 412.151 638.581 L 412.151 638.581 Q 414.082 639.084 416.208 639.924 L 416.208 639.924 L 414.809 644.065 L 414.809 644.065 Q 412.963 643.337 411.368 642.89 L 411.368 642.89 L 411.368 642.89 Q 409.773 642.442 408.038 642.442 L 408.038 642.442 L 408.038 642.442 Q 405.408 642.442 404.065 643.477 L 404.065 643.477 L 404.065 643.477 Q 402.722 644.512 402.722 646.191 L 402.722 646.191 L 402.722 646.191 Q 402.722 647.758 403.786 648.513 L 403.786 648.513 L 403.786 648.513 Q 404.849 649.269 407.199 650.108 L 407.199 650.108 L 407.199 650.108 Q 407.815 650.276 408.318 650.5 L 408.318 650.5 L 409.661 651.003 L 409.661 651.003 Q 412.011 651.787 413.438 652.57 L 413.438 652.57 L 413.438 652.57 Q 414.865 653.354 415.872 654.948 L 415.872 654.948 L 415.872 654.948 Q 416.88 656.543 416.88 659.173 L 416.88 659.173 L 416.88 659.173 Q 416.88 663.314 413.942 665.58 L 413.942 665.58 L 413.942 665.58 Q 411.004 667.847 406.304 667.847 L 406.304 667.847 L 406.304 667.847 Q 403.562 667.847 401.212 667.259 L 401.212 667.259 L 401.212 667.259 Q 398.861 666.671 396.511 665.664 L 396.511 665.664 L 398.134 661.411 L 398.134 661.411 Z " fill-rule="evenodd" fill="rgb(227,242,253)"/></g><path d=" M 359.602 694.334 L 359.602 694.334 L 359.042 696.141 L 362.602 696.141 L 362.042 694.334 L 362.042 694.334 Q 361.717 693.34 361.427 692.355 L 361.427 692.355 L 361.427 692.355 Q 361.138 691.37 360.849 690.34 L 360.849 690.34 L 360.777 690.34 L 360.777 690.34 Q 360.506 691.37 360.217 692.355 L 360.217 692.355 L 360.217 692.355 Q 359.928 693.34 359.602 694.334 Z  M 357.524 700.966 L 355.988 700.966 L 360 689.111 L 361.699 689.111 L 365.71 700.966 L 364.102 700.966 L 362.982 697.352 L 358.662 697.352 L 357.524 700.966 L 357.524 700.966 Z  M 374.078 700.966 L 367.391 700.966 L 367.391 689.111 L 368.891 689.111 L 368.891 699.683 L 374.078 699.683 L 374.078 700.966 L 374.078 700.966 Z  M 378.216 694.334 L 378.216 694.334 L 377.656 696.141 L 381.216 696.141 L 380.656 694.334 L 380.656 694.334 Q 380.33 693.34 380.041 692.355 L 380.041 692.355 L 380.041 692.355 Q 379.752 691.37 379.463 690.34 L 379.463 690.34 L 379.391 690.34 L 379.391 690.34 Q 379.12 691.37 378.831 692.355 L 378.831 692.355 L 378.831 692.355 Q 378.541 693.34 378.216 694.334 Z  M 376.138 700.966 L 374.602 700.966 L 378.614 689.111 L 380.312 689.111 L 384.324 700.966 L 382.716 700.966 L 381.596 697.352 L 377.276 697.352 L 376.138 700.966 L 376.138 700.966 Z  M 390.668 701.183 L 390.668 701.183 L 390.668 701.183 Q 389.493 701.183 388.508 700.767 L 388.508 700.767 L 388.508 700.767 Q 387.523 700.352 386.818 699.566 L 386.818 699.566 L 386.818 699.566 Q 386.113 698.779 385.716 697.632 L 385.716 697.632 L 385.716 697.632 Q 385.318 696.484 385.318 695.039 L 385.318 695.039 L 385.318 695.039 Q 385.318 693.611 385.725 692.472 L 385.725 692.472 L 385.725 692.472 Q 386.132 691.334 386.854 690.539 L 386.854 690.539 L 386.854 690.539 Q 387.577 689.744 388.58 689.319 L 388.58 689.319 L 388.58 689.319 Q 389.583 688.894 390.758 688.894 L 390.758 688.894 L 390.758 688.894 Q 391.372 688.894 391.887 689.021 L 391.887 689.021 L 391.887 689.021 Q 392.402 689.147 392.827 689.355 L 392.827 689.355 L 392.827 689.355 Q 393.252 689.563 393.586 689.825 L 393.586 689.825 L 393.586 689.825 Q 393.92 690.087 394.173 690.358 L 394.173 690.358 L 393.342 691.334 L 393.342 691.334 Q 392.89 690.864 392.294 690.539 L 392.294 690.539 L 392.294 690.539 Q 391.698 690.213 390.794 690.213 L 390.794 690.213 L 390.794 690.213 Q 389.89 690.213 389.168 690.548 L 389.168 690.548 L 389.168 690.548 Q 388.445 690.882 387.939 691.506 L 387.939 691.506 L 387.939 691.506 Q 387.433 692.129 387.153 693.015 L 387.153 693.015 L 387.153 693.015 Q 386.872 693.9 386.872 695.002 L 386.872 695.002 L 386.872 695.002 Q 386.872 696.123 387.134 697.017 L 387.134 697.017 L 387.134 697.017 Q 387.397 697.912 387.894 698.544 L 387.894 698.544 L 387.894 698.544 Q 388.39 699.177 389.122 699.52 L 389.122 699.52 L 389.122 699.52 Q 389.854 699.864 390.812 699.864 L 390.812 699.864 L 390.812 699.864 Q 391.445 699.864 392.014 699.674 L 392.014 699.674 L 392.014 699.674 Q 392.583 699.484 392.945 699.159 L 392.945 699.159 L 392.945 696.069 L 390.433 696.069 L 390.433 694.822 L 394.318 694.822 L 394.318 699.81 L 394.318 699.81 Q 393.74 700.406 392.8 700.794 L 392.8 700.794 L 392.8 700.794 Q 391.86 701.183 390.668 701.183 Z  M 401.529 701.183 L 401.529 701.183 L 401.529 701.183 Q 400.408 701.183 399.477 700.749 L 399.477 700.749 L 399.477 700.749 Q 398.547 700.316 397.878 699.511 L 397.878 699.511 L 397.878 699.511 Q 397.209 698.707 396.839 697.56 L 396.839 697.56 L 396.839 697.56 Q 396.469 696.412 396.469 694.984 L 396.469 694.984 L 396.469 694.984 Q 396.469 693.557 396.839 692.427 L 396.839 692.427 L 396.839 692.427 Q 397.209 691.298 397.878 690.512 L 397.878 690.512 L 397.878 690.512 Q 398.547 689.725 399.477 689.31 L 399.477 689.31 L 399.477 689.31 Q 400.408 688.894 401.529 688.894 L 401.529 688.894 L 401.529 688.894 Q 402.649 688.894 403.58 689.319 L 403.58 689.319 L 403.58 689.319 Q 404.51 689.744 405.188 690.53 L 405.188 690.53 L 405.188 690.53 Q 405.866 691.316 406.236 692.445 L 406.236 692.445 L 406.236 692.445 Q 406.607 693.575 406.607 694.984 L 406.607 694.984 L 406.607 694.984 Q 406.607 696.412 406.236 697.56 L 406.236 697.56 L 406.236 697.56 Q 405.866 698.707 405.188 699.511 L 405.188 699.511 L 405.188 699.511 Q 404.51 700.316 403.58 700.749 L 403.58 700.749 L 403.58 700.749 Q 402.649 701.183 401.529 701.183 Z  M 401.529 699.864 L 401.529 699.864 L 401.529 699.864 Q 402.324 699.864 402.965 699.52 L 402.965 699.52 L 402.965 699.52 Q 403.607 699.177 404.068 698.535 L 404.068 698.535 L 404.068 698.535 Q 404.529 697.894 404.782 696.999 L 404.782 696.999 L 404.782 696.999 Q 405.035 696.105 405.035 694.984 L 405.035 694.984 L 405.035 694.984 Q 405.035 693.882 404.782 692.996 L 404.782 692.996 L 404.782 692.996 Q 404.529 692.111 404.068 691.497 L 404.068 691.497 L 404.068 691.497 Q 403.607 690.882 402.965 690.548 L 402.965 690.548 L 402.965 690.548 Q 402.324 690.213 401.529 690.213 L 401.529 690.213 L 401.529 690.213 Q 400.733 690.213 400.092 690.548 L 400.092 690.548 L 400.092 690.548 Q 399.45 690.882 398.99 691.497 L 398.99 691.497 L 398.99 691.497 Q 398.529 692.111 398.276 692.996 L 398.276 692.996 L 398.276 692.996 Q 398.023 693.882 398.023 694.984 L 398.023 694.984 L 398.023 694.984 Q 398.023 696.105 398.276 696.999 L 398.276 696.999 L 398.276 696.999 Q 398.529 697.894 398.99 698.535 L 398.99 698.535 L 398.99 698.535 Q 399.45 699.177 400.092 699.52 L 400.092 699.52 L 400.092 699.52 Q 400.733 699.864 401.529 699.864 Z  M 411.197 694.334 L 411.197 694.334 L 410.637 696.141 L 414.197 696.141 L 413.637 694.334 L 413.637 694.334 Q 413.311 693.34 413.022 692.355 L 413.022 692.355 L 413.022 692.355 Q 412.733 691.37 412.444 690.34 L 412.444 690.34 L 412.372 690.34 L 412.372 690.34 Q 412.101 691.37 411.811 692.355 L 411.811 692.355 L 411.811 692.355 Q 411.522 693.34 411.197 694.334 Z  M 409.119 700.966 L 407.583 700.966 L 411.595 689.111 L 413.293 689.111 L 417.305 700.966 L 415.697 700.966 L 414.576 697.352 L 410.257 697.352 L 409.119 700.966 L 409.119 700.966 Z  M 422.275 701.183 L 422.275 701.183 L 422.275 701.183 Q 421.028 701.183 419.962 700.713 L 419.962 700.713 L 419.962 700.713 Q 418.896 700.243 418.118 699.43 L 418.118 699.43 L 419.022 698.382 L 419.022 698.382 Q 419.655 699.051 420.513 699.457 L 420.513 699.457 L 420.513 699.457 Q 421.371 699.864 422.293 699.864 L 422.293 699.864 L 422.293 699.864 Q 423.468 699.864 424.118 699.331 L 424.118 699.331 L 424.118 699.331 Q 424.769 698.797 424.769 697.93 L 424.769 697.93 L 424.769 697.93 Q 424.769 697.478 424.615 697.162 L 424.615 697.162 L 424.615 697.162 Q 424.462 696.846 424.2 696.62 L 424.2 696.62 L 424.2 696.62 Q 423.938 696.394 423.576 696.213 L 423.576 696.213 L 423.576 696.213 Q 423.215 696.033 422.799 695.834 L 422.799 695.834 L 421.1 695.093 L 421.1 695.093 Q 420.685 694.912 420.251 694.659 L 420.251 694.659 L 420.251 694.659 Q 419.817 694.406 419.474 694.045 L 419.474 694.045 L 419.474 694.045 Q 419.13 693.683 418.914 693.186 L 418.914 693.186 L 418.914 693.186 Q 418.697 692.689 418.697 692.039 L 418.697 692.039 L 418.697 692.039 Q 418.697 691.37 418.977 690.792 L 418.977 690.792 L 418.977 690.792 Q 419.257 690.213 419.754 689.789 L 419.754 689.789 L 419.754 689.789 Q 420.251 689.364 420.929 689.129 L 420.929 689.129 L 420.929 689.129 Q 421.606 688.894 422.42 688.894 L 422.42 688.894 L 422.42 688.894 Q 423.486 688.894 424.389 689.301 L 424.389 689.301 L 424.389 689.301 Q 425.293 689.707 425.925 690.358 L 425.925 690.358 L 425.112 691.334 L 425.112 691.334 Q 424.57 690.81 423.91 690.512 L 423.91 690.512 L 423.91 690.512 Q 423.251 690.213 422.42 690.213 L 422.42 690.213 L 422.42 690.213 Q 421.426 690.213 420.82 690.674 L 420.82 690.674 L 420.82 690.674 Q 420.215 691.135 420.215 691.948 L 420.215 691.948 L 420.215 691.948 Q 420.215 692.382 420.386 692.68 L 420.386 692.68 L 420.386 692.68 Q 420.558 692.978 420.847 693.204 L 420.847 693.204 L 420.847 693.204 Q 421.136 693.43 421.48 693.602 L 421.48 693.602 L 421.48 693.602 Q 421.823 693.774 422.185 693.918 L 422.185 693.918 L 423.865 694.641 L 423.865 694.641 Q 424.371 694.858 424.823 695.138 L 424.823 695.138 L 424.823 695.138 Q 425.275 695.418 425.6 695.789 L 425.6 695.789 L 425.6 695.789 Q 425.925 696.159 426.115 696.656 L 426.115 696.656 L 426.115 696.656 Q 426.305 697.153 426.305 697.804 L 426.305 697.804 L 426.305 697.804 Q 426.305 698.508 426.025 699.123 L 426.025 699.123 L 426.025 699.123 Q 425.745 699.737 425.221 700.198 L 425.221 700.198 L 425.221 700.198 Q 424.697 700.659 423.956 700.921 L 423.956 700.921 L 423.956 700.921 Q 423.215 701.183 422.275 701.183 Z  M 336.344 700.966 L 333.308 700.966 L 333.308 689.111 L 336.272 689.111 L 336.272 689.111 Q 339.019 689.111 340.446 690.629 L 340.446 690.629 L 340.446 690.629 Q 341.874 692.147 341.874 694.984 L 341.874 694.984 L 341.874 694.984 Q 341.874 696.394 341.512 697.505 L 341.512 697.505 L 341.512 697.505 Q 341.151 698.617 340.446 699.385 L 340.446 699.385 L 340.446 699.385 Q 339.741 700.153 338.711 700.559 L 338.711 700.559 L 338.711 700.559 Q 337.681 700.966 336.344 700.966 L 336.344 700.966 L 336.344 700.966 Z  M 334.808 690.34 L 334.808 699.737 L 336.163 699.737 L 336.163 699.737 Q 338.241 699.737 339.281 698.49 L 339.281 698.49 L 339.281 698.49 Q 340.32 697.243 340.32 694.984 L 340.32 694.984 L 340.32 694.984 Q 340.32 692.725 339.281 691.533 L 339.281 691.533 L 339.281 691.533 Q 338.241 690.34 336.163 690.34 L 336.163 690.34 L 334.808 690.34 L 334.808 690.34 Z  M 351.434 700.966 L 344.422 700.966 L 344.422 689.111 L 351.253 689.111 L 351.253 690.376 L 345.922 690.376 L 345.922 694.099 L 350.422 694.099 L 350.422 695.382 L 345.922 695.382 L 345.922 699.683 L 351.434 699.683 L 351.434 700.966 L 351.434 700.966 Z  M 263.208 700.966 L 261.708 700.966 L 261.708 689.111 L 268.539 689.111 L 268.539 690.376 L 263.208 690.376 L 263.208 694.388 L 267.726 694.388 L 267.726 695.653 L 263.208 695.653 L 263.208 700.966 L 263.208 700.966 Z  M 277.647 700.966 L 270.635 700.966 L 270.635 689.111 L 277.466 689.111 L 277.466 690.376 L 272.135 690.376 L 272.135 694.099 L 276.635 694.099 L 276.635 695.382 L 272.135 695.382 L 272.135 699.683 L 277.647 699.683 L 277.647 700.966 L 277.647 700.966 Z  M 283.195 700.966 L 280.159 700.966 L 280.159 689.111 L 283.123 689.111 L 283.123 689.111 Q 285.87 689.111 287.297 690.629 L 287.297 690.629 L 287.297 690.629 Q 288.725 692.147 288.725 694.984 L 288.725 694.984 L 288.725 694.984 Q 288.725 696.394 288.363 697.505 L 288.363 697.505 L 288.363 697.505 Q 288.002 698.617 287.297 699.385 L 287.297 699.385 L 287.297 699.385 Q 286.592 700.153 285.562 700.559 L 285.562 700.559 L 285.562 700.559 Q 284.532 700.966 283.195 700.966 L 283.195 700.966 L 283.195 700.966 Z  M 281.659 690.34 L 281.659 699.737 L 283.014 699.737 L 283.014 699.737 Q 285.092 699.737 286.132 698.49 L 286.132 698.49 L 286.132 698.49 Q 287.171 697.243 287.171 694.984 L 287.171 694.984 L 287.171 694.984 Q 287.171 692.725 286.132 691.533 L 286.132 691.533 L 286.132 691.533 Q 285.092 690.34 283.014 690.34 L 283.014 690.34 L 281.659 690.34 L 281.659 690.34 Z  M 298.285 700.966 L 291.273 700.966 L 291.273 689.111 L 298.104 689.111 L 298.104 690.376 L 292.773 690.376 L 292.773 694.099 L 297.273 694.099 L 297.273 695.382 L 292.773 695.382 L 292.773 699.683 L 298.285 699.683 L 298.285 700.966 L 298.285 700.966 Z  M 302.297 700.966 L 300.797 700.966 L 300.797 689.111 L 304.502 689.111 L 304.502 689.111 Q 305.405 689.111 306.173 689.283 L 306.173 689.283 L 306.173 689.283 Q 306.941 689.454 307.492 689.852 L 307.492 689.852 L 307.492 689.852 Q 308.044 690.25 308.351 690.882 L 308.351 690.882 L 308.351 690.882 Q 308.658 691.515 308.658 692.436 L 308.658 692.436 L 308.658 692.436 Q 308.658 693.828 307.935 694.659 L 307.935 694.659 L 307.935 694.659 Q 307.212 695.49 305.983 695.798 L 305.983 695.798 L 309.001 700.966 L 307.303 700.966 L 304.447 695.96 L 302.297 695.96 L 302.297 700.966 L 302.297 700.966 Z  M 302.297 690.322 L 302.297 694.731 L 304.285 694.731 L 304.285 694.731 Q 305.676 694.731 306.417 694.162 L 306.417 694.162 L 306.417 694.162 Q 307.158 693.593 307.158 692.436 L 307.158 692.436 L 307.158 692.436 Q 307.158 691.262 306.417 690.792 L 306.417 690.792 L 306.417 690.792 Q 305.676 690.322 304.285 690.322 L 304.285 690.322 L 302.297 690.322 L 302.297 690.322 Z  M 313.122 694.334 L 313.122 694.334 L 312.561 696.141 L 316.122 696.141 L 315.561 694.334 L 315.561 694.334 Q 315.236 693.34 314.947 692.355 L 314.947 692.355 L 314.947 692.355 Q 314.658 691.37 314.369 690.34 L 314.369 690.34 L 314.296 690.34 L 314.296 690.34 Q 314.025 691.37 313.736 692.355 L 313.736 692.355 L 313.736 692.355 Q 313.447 693.34 313.122 694.334 Z  M 311.043 700.966 L 309.507 700.966 L 313.519 689.111 L 315.218 689.111 L 319.23 700.966 L 317.622 700.966 L 316.501 697.352 L 312.182 697.352 L 311.043 700.966 L 311.043 700.966 Z  M 327.597 700.966 L 320.911 700.966 L 320.911 689.111 L 322.411 689.111 L 322.411 699.683 L 327.597 699.683 L 327.597 700.966 L 327.597 700.966 Z  M 149.103 701.183 L 149.103 701.183 L 149.103 701.183 Q 148.199 701.183 147.413 700.921 L 147.413 700.921 L 147.413 700.921 Q 146.627 700.659 146.058 700.053 L 146.058 700.053 L 146.058 700.053 Q 145.488 699.448 145.163 698.472 L 145.163 698.472 L 145.163 698.472 Q 144.838 697.496 144.838 696.069 L 144.838 696.069 L 144.838 689.111 L 146.338 689.111 L 146.338 696.105 L 146.338 696.105 Q 146.338 697.171 146.555 697.894 L 146.555 697.894 L 146.555 697.894 Q 146.771 698.617 147.142 699.051 L 147.142 699.051 L 147.142 699.051 Q 147.512 699.484 148.018 699.674 L 148.018 699.674 L 148.018 699.674 Q 148.524 699.864 149.103 699.864 L 149.103 699.864 L 149.103 699.864 Q 149.699 699.864 150.205 699.674 L 150.205 699.674 L 150.205 699.674 Q 150.711 699.484 151.091 699.051 L 151.091 699.051 L 151.091 699.051 Q 151.47 698.617 151.687 697.894 L 151.687 697.894 L 151.687 697.894 Q 151.904 697.171 151.904 696.105 L 151.904 696.105 L 151.904 689.111 L 153.35 689.111 L 153.35 696.069 L 153.35 696.069 Q 153.35 697.496 153.024 698.472 L 153.024 698.472 L 153.024 698.472 Q 152.699 699.448 152.13 700.053 L 152.13 700.053 L 152.13 700.053 Q 151.56 700.659 150.783 700.921 L 150.783 700.921 L 150.783 700.921 Q 150.006 701.183 149.103 701.183 Z  M 157.976 700.966 L 156.548 700.966 L 156.548 689.111 L 158.102 689.111 L 162.385 696.557 L 163.668 699.014 L 163.741 699.014 L 163.741 699.014 Q 163.687 698.111 163.623 697.144 L 163.623 697.144 L 163.623 697.144 Q 163.56 696.177 163.56 695.237 L 163.56 695.237 L 163.56 689.111 L 164.988 689.111 L 164.988 700.966 L 163.434 700.966 L 159.132 693.502 L 157.849 691.063 L 157.777 691.063 L 157.777 691.063 Q 157.849 691.966 157.913 692.897 L 157.913 692.897 L 157.913 692.897 Q 157.976 693.828 157.976 694.767 L 157.976 694.767 L 157.976 700.966 L 157.976 700.966 Z  M 169.741 700.966 L 168.241 700.966 L 168.241 689.111 L 169.741 689.111 L 169.741 700.966 L 169.741 700.966 Z  M 176.915 700.966 L 175.162 700.966 L 171.367 689.111 L 172.975 689.111 L 174.873 695.508 L 174.873 695.508 Q 175.198 696.575 175.442 697.478 L 175.442 697.478 L 175.442 697.478 Q 175.686 698.382 176.03 699.43 L 176.03 699.43 L 176.102 699.43 L 176.102 699.43 Q 176.427 698.382 176.68 697.478 L 176.68 697.478 L 176.68 697.478 Q 176.933 696.575 177.24 695.508 L 177.24 695.508 L 179.138 689.111 L 180.674 689.111 L 176.915 700.966 L 176.915 700.966 Z  M 189.312 700.966 L 182.3 700.966 L 182.3 689.111 L 189.132 689.111 L 189.132 690.376 L 183.8 690.376 L 183.8 694.099 L 188.3 694.099 L 188.3 695.382 L 183.8 695.382 L 183.8 699.683 L 189.312 699.683 L 189.312 700.966 L 189.312 700.966 Z  M 193.324 700.966 L 191.824 700.966 L 191.824 689.111 L 195.529 689.111 L 195.529 689.111 Q 196.433 689.111 197.201 689.283 L 197.201 689.283 L 197.201 689.283 Q 197.969 689.454 198.52 689.852 L 198.52 689.852 L 198.52 689.852 Q 199.071 690.25 199.378 690.882 L 199.378 690.882 L 199.378 690.882 Q 199.685 691.515 199.685 692.436 L 199.685 692.436 L 199.685 692.436 Q 199.685 693.828 198.963 694.659 L 198.963 694.659 L 198.963 694.659 Q 198.24 695.49 197.011 695.798 L 197.011 695.798 L 200.029 700.966 L 198.33 700.966 L 195.475 695.96 L 193.324 695.96 L 193.324 700.966 L 193.324 700.966 Z  M 193.324 690.322 L 193.324 694.731 L 195.312 694.731 L 195.312 694.731 Q 196.704 694.731 197.445 694.162 L 197.445 694.162 L 197.445 694.162 Q 198.186 693.593 198.186 692.436 L 198.186 692.436 L 198.186 692.436 Q 198.186 691.262 197.445 690.792 L 197.445 690.792 L 197.445 690.792 Q 196.704 690.322 195.312 690.322 L 195.312 690.322 L 193.324 690.322 L 193.324 690.322 Z  M 205.396 701.183 L 205.396 701.183 L 205.396 701.183 Q 204.149 701.183 203.083 700.713 L 203.083 700.713 L 203.083 700.713 Q 202.017 700.243 201.24 699.43 L 201.24 699.43 L 202.143 698.382 L 202.143 698.382 Q 202.776 699.051 203.634 699.457 L 203.634 699.457 L 203.634 699.457 Q 204.493 699.864 205.414 699.864 L 205.414 699.864 L 205.414 699.864 Q 206.589 699.864 207.239 699.331 L 207.239 699.331 L 207.239 699.331 Q 207.89 698.797 207.89 697.93 L 207.89 697.93 L 207.89 697.93 Q 207.89 697.478 207.736 697.162 L 207.736 697.162 L 207.736 697.162 Q 207.583 696.846 207.321 696.62 L 207.321 696.62 L 207.321 696.62 Q 207.059 696.394 206.697 696.213 L 206.697 696.213 L 206.697 696.213 Q 206.336 696.033 205.92 695.834 L 205.92 695.834 L 204.221 695.093 L 204.221 695.093 Q 203.806 694.912 203.372 694.659 L 203.372 694.659 L 203.372 694.659 Q 202.938 694.406 202.595 694.045 L 202.595 694.045 L 202.595 694.045 Q 202.252 693.683 202.035 693.186 L 202.035 693.186 L 202.035 693.186 Q 201.818 692.689 201.818 692.039 L 201.818 692.039 L 201.818 692.039 Q 201.818 691.37 202.098 690.792 L 202.098 690.792 L 202.098 690.792 Q 202.378 690.213 202.875 689.789 L 202.875 689.789 L 202.875 689.789 Q 203.372 689.364 204.05 689.129 L 204.05 689.129 L 204.05 689.129 Q 204.727 688.894 205.541 688.894 L 205.541 688.894 L 205.541 688.894 Q 206.607 688.894 207.511 689.301 L 207.511 689.301 L 207.511 689.301 Q 208.414 689.707 209.047 690.358 L 209.047 690.358 L 208.233 691.334 L 208.233 691.334 Q 207.691 690.81 207.032 690.512 L 207.032 690.512 L 207.032 690.512 Q 206.372 690.213 205.541 690.213 L 205.541 690.213 L 205.541 690.213 Q 204.547 690.213 203.941 690.674 L 203.941 690.674 L 203.941 690.674 Q 203.336 691.135 203.336 691.948 L 203.336 691.948 L 203.336 691.948 Q 203.336 692.382 203.508 692.68 L 203.508 692.68 L 203.508 692.68 Q 203.679 692.978 203.968 693.204 L 203.968 693.204 L 203.968 693.204 Q 204.258 693.43 204.601 693.602 L 204.601 693.602 L 204.601 693.602 Q 204.944 693.774 205.306 693.918 L 205.306 693.918 L 206.986 694.641 L 206.986 694.641 Q 207.492 694.858 207.944 695.138 L 207.944 695.138 L 207.944 695.138 Q 208.396 695.418 208.721 695.789 L 208.721 695.789 L 208.721 695.789 Q 209.047 696.159 209.236 696.656 L 209.236 696.656 L 209.236 696.656 Q 209.426 697.153 209.426 697.804 L 209.426 697.804 L 209.426 697.804 Q 209.426 698.508 209.146 699.123 L 209.146 699.123 L 209.146 699.123 Q 208.866 699.737 208.342 700.198 L 208.342 700.198 L 208.342 700.198 Q 207.818 700.659 207.077 700.921 L 207.077 700.921 L 207.077 700.921 Q 206.336 701.183 205.396 701.183 Z  M 213.257 700.966 L 211.757 700.966 L 211.757 689.111 L 213.257 689.111 L 213.257 700.966 L 213.257 700.966 Z  M 219.546 700.966 L 216.51 700.966 L 216.51 689.111 L 219.474 689.111 L 219.474 689.111 Q 222.221 689.111 223.649 690.629 L 223.649 690.629 L 223.649 690.629 Q 225.076 692.147 225.076 694.984 L 225.076 694.984 L 225.076 694.984 Q 225.076 696.394 224.715 697.505 L 224.715 697.505 L 224.715 697.505 Q 224.353 698.617 223.649 699.385 L 223.649 699.385 L 223.649 699.385 Q 222.944 700.153 221.914 700.559 L 221.914 700.559 L 221.914 700.559 Q 220.884 700.966 219.546 700.966 L 219.546 700.966 L 219.546 700.966 Z  M 218.01 690.34 L 218.01 699.737 L 219.366 699.737 L 219.366 699.737 Q 221.444 699.737 222.483 698.49 L 222.483 698.49 L 222.483 698.49 Q 223.522 697.243 223.522 694.984 L 223.522 694.984 L 223.522 694.984 Q 223.522 692.725 222.483 691.533 L 222.483 691.533 L 222.483 691.533 Q 221.444 690.34 219.366 690.34 L 219.366 690.34 L 218.01 690.34 L 218.01 690.34 Z  M 229.666 694.334 L 229.666 694.334 L 229.106 696.141 L 232.666 696.141 L 232.106 694.334 L 232.106 694.334 Q 231.781 693.34 231.492 692.355 L 231.492 692.355 L 231.492 692.355 Q 231.203 691.37 230.913 690.34 L 230.913 690.34 L 230.841 690.34 L 230.841 690.34 Q 230.57 691.37 230.281 692.355 L 230.281 692.355 L 230.281 692.355 Q 229.992 693.34 229.666 694.334 Z  M 227.588 700.966 L 226.052 700.966 L 230.064 689.111 L 231.763 689.111 L 235.775 700.966 L 234.166 700.966 L 233.046 697.352 L 228.727 697.352 L 227.588 700.966 L 227.588 700.966 Z  M 240.491 700.966 L 237.455 700.966 L 237.455 689.111 L 240.419 689.111 L 240.419 689.111 Q 243.166 689.111 244.594 690.629 L 244.594 690.629 L 244.594 690.629 Q 246.021 692.147 246.021 694.984 L 246.021 694.984 L 246.021 694.984 Q 246.021 696.394 245.66 697.505 L 245.66 697.505 L 245.66 697.505 Q 245.299 698.617 244.594 699.385 L 244.594 699.385 L 244.594 699.385 Q 243.889 700.153 242.859 700.559 L 242.859 700.559 L 242.859 700.559 Q 241.829 700.966 240.491 700.966 L 240.491 700.966 L 240.491 700.966 Z  M 238.955 690.34 L 238.955 699.737 L 240.311 699.737 L 240.311 699.737 Q 242.389 699.737 243.428 698.49 L 243.428 698.49 L 243.428 698.49 Q 244.467 697.243 244.467 694.984 L 244.467 694.984 L 244.467 694.984 Q 244.467 692.725 243.428 691.533 L 243.428 691.533 L 243.428 691.533 Q 242.389 690.34 240.311 690.34 L 240.311 690.34 L 238.955 690.34 L 238.955 690.34 Z  M 255.581 700.966 L 248.569 700.966 L 248.569 689.111 L 255.401 689.111 L 255.401 690.376 L 250.069 690.376 L 250.069 694.099 L 254.569 694.099 L 254.569 695.382 L 250.069 695.382 L 250.069 699.683 L 255.581 699.683 L 255.581 700.966 L 255.581 700.966 Z " fill-rule="evenodd" fill="rgb(235,235,235)"/></g></g></svg>