<?xml version="1.0" standalone="no"?><!-- Generator: Gravit.io --><svg xmlns="http://www.w3.org/2000/svg" xmlns:xlink="http://www.w3.org/1999/xlink" style="isolation:isolate" viewBox="837.938 43.006 58.125 60" width="58.125" height="60"><path d=" M 848.25 43.006 L 848.25 55.366 L 837.938 63.163 L 837.938 103.006 L 896.063 103.006 L 896.063 63.163 L 885.75 55.366 L 885.75 43.006 L 848.25 43.006 Z  M 850.125 44.881 L 883.875 44.881 L 883.875 71.341 L 881.985 72.838 C 881.904 72.398 881.524 72.077 881.077 72.07 C 880.631 72.063 880.241 72.372 880.147 72.809 C 880.052 73.246 880.279 73.689 880.689 73.867 L 877.28 76.562 C 877.298 76.317 877.313 76.068 877.313 75.819 C 877.313 70.135 872.683 65.506 867 65.506 C 861.316 65.506 856.688 70.136 856.688 75.819 C 856.688 76.068 856.703 76.317 856.717 76.562 L 853.314 73.867 C 853.719 73.687 853.944 73.249 853.853 72.816 C 853.762 72.382 853.381 72.071 852.938 72.069 C 852.484 72.068 852.096 72.392 852.015 72.838 L 850.125 71.341 L 850.125 44.881 Z  M 858.563 46.756 C 858.047 46.756 857.625 47.178 857.625 47.694 C 857.625 48.21 858.047 48.631 858.563 48.631 C 859.078 48.631 859.5 48.21 859.5 47.694 C 859.5 47.178 859.078 46.756 858.563 46.756 Z  M 861.375 46.756 C 860.859 46.756 860.438 47.178 860.438 47.694 C 860.438 48.21 860.859 48.631 861.375 48.631 C 861.891 48.631 862.313 48.21 862.313 47.694 C 862.313 47.178 861.891 46.756 861.375 46.756 Z  M 864.188 46.756 C 863.672 46.756 863.25 47.178 863.25 47.694 C 863.25 48.21 863.672 48.631 864.188 48.631 C 864.703 48.631 865.125 48.21 865.125 47.694 C 865.125 47.178 864.703 46.756 864.188 46.756 Z  M 867 46.756 C 866.484 46.756 866.063 47.178 866.063 47.694 C 866.063 48.21 866.484 48.631 867 48.631 C 867.516 48.631 867.938 48.21 867.938 47.694 C 867.938 47.178 867.516 46.756 867 46.756 Z  M 869.813 46.756 C 869.297 46.756 868.875 47.178 868.875 47.694 C 868.875 48.21 869.297 48.631 869.813 48.631 C 870.328 48.631 870.75 48.21 870.75 47.694 C 870.75 47.178 870.328 46.756 869.813 46.756 Z  M 872.625 46.756 C 872.109 46.756 871.688 47.178 871.688 47.694 C 871.688 48.21 872.109 48.631 872.625 48.631 C 873.141 48.631 873.563 48.21 873.563 47.694 C 873.563 47.178 873.141 46.756 872.625 46.756 Z  M 875.438 46.756 C 874.922 46.756 874.5 47.178 874.5 47.694 C 874.5 48.21 874.922 48.631 875.438 48.631 C 875.953 48.631 876.375 48.21 876.375 47.694 C 876.375 47.178 875.953 46.756 875.438 46.756 Z  M 857.625 49.569 C 857.109 49.569 856.688 49.991 856.688 50.506 C 856.688 51.022 857.109 51.444 857.625 51.444 C 858.141 51.444 858.563 51.022 858.563 50.506 C 858.563 49.991 858.141 49.569 857.625 49.569 Z  M 876.375 49.569 C 875.859 49.569 875.438 49.991 875.438 50.506 C 875.438 51.022 875.859 51.444 876.375 51.444 C 876.891 51.444 877.313 51.022 877.313 50.506 C 877.313 49.991 876.891 49.569 876.375 49.569 Z  M 855.75 51.444 C 855.234 51.444 854.813 51.866 854.813 52.381 C 854.813 52.897 855.234 53.319 855.75 53.319 C 856.266 53.319 856.688 52.897 856.688 52.381 C 856.688 51.866 856.266 51.444 855.75 51.444 Z  M 878.25 51.444 C 877.734 51.444 877.313 51.866 877.313 52.381 C 877.313 52.897 877.734 53.319 878.25 53.319 C 878.766 53.319 879.188 52.897 879.188 52.381 C 879.188 51.866 878.766 51.444 878.25 51.444 Z  M 852.938 52.381 C 852.422 52.381 852 52.803 852 53.319 C 852 53.835 852.422 54.256 852.938 54.256 C 853.453 54.256 853.875 53.835 853.875 53.319 C 853.875 52.803 853.453 52.381 852.938 52.381 Z  M 881.063 52.381 C 880.547 52.381 880.125 52.803 880.125 53.319 C 880.125 53.835 880.547 54.256 881.063 54.256 C 881.578 54.256 882 53.835 882 53.319 C 882 52.803 881.578 52.381 881.063 52.381 Z  M 867 53.319 C 864.938 53.319 863.25 55.006 863.25 57.069 C 863.25 59.131 864.938 60.819 867 60.819 C 869.063 60.819 870.75 59.131 870.75 57.069 C 870.75 55.006 869.063 53.319 867 53.319 Z  M 852.938 55.194 C 852.422 55.194 852 55.616 852 56.131 C 852 56.647 852.422 57.069 852.938 57.069 C 853.453 57.069 853.875 56.647 853.875 56.131 C 853.875 55.616 853.453 55.194 852.938 55.194 Z  M 867 55.194 C 868.047 55.194 868.875 56.022 868.875 57.069 C 868.875 58.116 868.047 58.944 867 58.944 C 865.953 58.944 865.125 58.116 865.125 57.069 C 865.125 56.022 865.953 55.194 867 55.194 Z  M 881.063 55.194 C 880.547 55.194 880.125 55.616 880.125 56.131 C 880.125 56.647 880.547 57.069 881.063 57.069 C 881.578 57.069 882 56.647 882 56.131 C 882 55.616 881.578 55.194 881.063 55.194 Z  M 885.75 57.714 L 893.594 63.646 L 885.75 69.856 L 885.75 57.714 Z  M 848.25 57.714 L 848.25 69.856 L 840.41 63.649 L 848.25 57.714 Z  M 852.938 58.006 C 852.422 58.006 852 58.428 852 58.944 C 852 59.46 852.422 59.881 852.938 59.881 C 853.453 59.881 853.875 59.46 853.875 58.944 C 853.875 58.428 853.453 58.006 852.938 58.006 Z  M 881.063 58.006 C 880.547 58.006 880.125 58.428 880.125 58.944 C 880.125 59.46 880.547 59.881 881.063 59.881 C 881.578 59.881 882 59.46 882 58.944 C 882 58.428 881.578 58.006 881.063 58.006 Z  M 852.938 60.819 C 852.422 60.819 852 61.241 852 61.756 C 852 62.272 852.422 62.694 852.938 62.694 C 853.453 62.694 853.875 62.272 853.875 61.756 C 853.875 61.241 853.453 60.819 852.938 60.819 Z  M 881.063 60.819 C 880.547 60.819 880.125 61.241 880.125 61.756 C 880.125 62.272 880.547 62.694 881.063 62.694 C 881.578 62.694 882 62.272 882 61.756 C 882 61.241 881.578 60.819 881.063 60.819 Z  M 852.938 63.631 C 852.422 63.631 852 64.053 852 64.569 C 852 65.085 852.422 65.506 852.938 65.506 C 853.453 65.506 853.875 65.085 853.875 64.569 C 853.875 64.053 853.453 63.631 852.938 63.631 Z  M 881.063 63.631 C 880.547 63.631 880.125 64.053 880.125 64.569 C 880.125 65.085 880.547 65.506 881.063 65.506 C 881.578 65.506 882 65.085 882 64.569 C 882 64.053 881.578 63.631 881.063 63.631 Z  M 839.813 65.568 L 861.049 82.381 L 872.951 82.381 L 894.188 65.568 L 894.188 101.131 L 839.813 101.131 L 839.813 65.568 Z  M 852.938 66.444 C 852.422 66.444 852 66.866 852 67.381 C 852 67.897 852.422 68.319 852.938 68.319 C 853.453 68.319 853.875 67.897 853.875 67.381 C 853.875 66.866 853.453 66.444 852.938 66.444 Z  M 881.063 66.444 C 880.547 66.444 880.125 66.866 880.125 67.381 C 880.125 67.897 880.547 68.319 881.063 68.319 C 881.578 68.319 882 67.897 882 67.381 C 882 66.866 881.578 66.444 881.063 66.444 Z  M 867 67.381 C 869.684 67.376 872.21 68.651 873.8 70.813 C 875.391 72.976 875.854 75.767 875.049 78.328 L 872.299 80.506 L 861.701 80.506 L 858.947 78.324 C 858.143 75.763 858.608 72.973 860.199 70.811 C 861.79 68.649 864.316 67.375 867 67.381 Z  M 852.938 69.256 C 852.422 69.256 852 69.678 852 70.194 C 852 70.71 852.422 71.131 852.938 71.131 C 853.453 71.131 853.875 70.71 853.875 70.194 C 853.875 69.678 853.453 69.256 852.938 69.256 Z  M 881.063 69.256 C 880.547 69.256 880.125 69.678 880.125 70.194 C 880.125 70.71 880.547 71.131 881.063 71.131 C 881.578 71.131 882 70.71 882 70.194 C 882 69.678 881.578 69.256 881.063 69.256 Z  M 844.5 73.006 C 843.984 73.006 843.563 73.428 843.563 73.944 C 843.563 74.46 843.984 74.881 844.5 74.881 C 845.016 74.881 845.438 74.46 845.438 73.944 C 845.438 73.428 845.016 73.006 844.5 73.006 Z  M 889.5 73.006 C 888.984 73.006 888.563 73.428 888.563 73.944 C 888.563 74.46 888.984 74.881 889.5 74.881 C 890.016 74.881 890.438 74.46 890.438 73.944 C 890.438 73.428 890.016 73.006 889.5 73.006 Z  M 844.5 76.756 C 843.984 76.756 843.563 77.178 843.563 77.694 C 843.563 78.21 843.984 78.631 844.5 78.631 C 845.016 78.631 845.438 78.21 845.438 77.694 C 845.438 77.178 845.016 76.756 844.5 76.756 Z  M 889.5 76.756 C 888.984 76.756 888.563 77.178 888.563 77.694 C 888.563 78.21 888.984 78.631 889.5 78.631 C 890.016 78.631 890.438 78.21 890.438 77.694 C 890.438 77.178 890.016 76.756 889.5 76.756 Z  M 844.5 80.506 C 843.984 80.506 843.563 80.928 843.563 81.444 C 843.563 81.96 843.984 82.381 844.5 82.381 C 845.016 82.381 845.438 81.96 845.438 81.444 C 845.438 80.928 845.016 80.506 844.5 80.506 Z  M 889.5 80.506 C 888.984 80.506 888.563 80.928 888.563 81.444 C 888.563 81.96 888.984 82.381 889.5 82.381 C 890.016 82.381 890.438 81.96 890.438 81.444 C 890.438 80.928 890.016 80.506 889.5 80.506 Z  M 844.5 84.256 C 843.984 84.256 843.563 84.678 843.563 85.194 C 843.563 85.71 843.984 86.131 844.5 86.131 C 845.016 86.131 845.438 85.71 845.438 85.194 C 845.438 84.678 845.016 84.256 844.5 84.256 Z  M 889.5 84.256 C 888.984 84.256 888.563 84.678 888.563 85.194 C 888.563 85.71 888.984 86.131 889.5 86.131 C 890.016 86.131 890.438 85.71 890.438 85.194 C 890.438 84.678 890.016 84.256 889.5 84.256 Z  M 844.5 88.006 C 843.984 88.006 843.563 88.428 843.563 88.944 C 843.563 89.46 843.984 89.881 844.5 89.881 C 845.016 89.881 845.438 89.46 845.438 88.944 C 845.438 88.428 845.016 88.006 844.5 88.006 Z  M 889.5 88.006 C 888.984 88.006 888.563 88.428 888.563 88.944 C 888.563 89.46 888.984 89.881 889.5 89.881 C 890.016 89.881 890.438 89.46 890.438 88.944 C 890.438 88.428 890.016 88.006 889.5 88.006 Z  M 844.5 91.756 C 843.984 91.756 843.563 92.178 843.563 92.694 C 843.563 93.21 843.984 93.631 844.5 93.631 C 845.016 93.631 845.438 93.21 845.438 92.694 C 845.438 92.178 845.016 91.756 844.5 91.756 Z  M 889.5 91.756 C 888.984 91.756 888.563 92.178 888.563 92.694 C 888.563 93.21 888.984 93.631 889.5 93.631 C 890.016 93.631 890.438 93.21 890.438 92.694 C 890.438 92.178 890.016 91.756 889.5 91.756 Z  M 844.5 95.506 C 843.984 95.506 843.563 95.928 843.563 96.444 C 843.563 96.96 843.984 97.381 844.5 97.381 C 845.016 97.381 845.438 96.96 845.438 96.444 C 845.438 95.928 845.016 95.506 844.5 95.506 Z  M 848.25 95.506 C 847.734 95.506 847.313 95.928 847.313 96.444 C 847.313 96.96 847.734 97.381 848.25 97.381 C 848.766 97.381 849.188 96.96 849.188 96.444 C 849.188 95.928 848.766 95.506 848.25 95.506 Z  M 852 95.506 C 851.484 95.506 851.063 95.928 851.063 96.444 C 851.063 96.96 851.484 97.381 852 97.381 C 852.516 97.381 852.938 96.96 852.938 96.444 C 852.938 95.928 852.516 95.506 852 95.506 Z  M 855.75 95.506 C 855.234 95.506 854.813 95.928 854.813 96.444 C 854.813 96.96 855.234 97.381 855.75 97.381 C 856.266 97.381 856.688 96.96 856.688 96.444 C 856.688 95.928 856.266 95.506 855.75 95.506 Z  M 859.5 95.506 C 858.984 95.506 858.563 95.928 858.563 96.444 C 858.563 96.96 858.984 97.381 859.5 97.381 C 860.016 97.381 860.438 96.96 860.438 96.444 C 860.438 95.928 860.016 95.506 859.5 95.506 Z  M 863.25 95.506 C 862.734 95.506 862.313 95.928 862.313 96.444 C 862.313 96.96 862.734 97.381 863.25 97.381 C 863.766 97.381 864.188 96.96 864.188 96.444 C 864.188 95.928 863.766 95.506 863.25 95.506 Z  M 867 95.506 C 866.484 95.506 866.063 95.928 866.063 96.444 C 866.063 96.96 866.484 97.381 867 97.381 C 867.516 97.381 867.938 96.96 867.938 96.444 C 867.938 95.928 867.516 95.506 867 95.506 Z  M 870.75 95.506 C 870.234 95.506 869.813 95.928 869.813 96.444 C 869.813 96.96 870.234 97.381 870.75 97.381 C 871.266 97.381 871.688 96.96 871.688 96.444 C 871.688 95.928 871.266 95.506 870.75 95.506 Z  M 874.5 95.506 C 873.984 95.506 873.563 95.928 873.563 96.444 C 873.563 96.96 873.984 97.381 874.5 97.381 C 875.016 97.381 875.438 96.96 875.438 96.444 C 875.438 95.928 875.016 95.506 874.5 95.506 Z  M 878.25 95.506 C 877.734 95.506 877.313 95.928 877.313 96.444 C 877.313 96.96 877.734 97.381 878.25 97.381 C 878.766 97.381 879.188 96.96 879.188 96.444 C 879.188 95.928 878.766 95.506 878.25 95.506 Z  M 882 95.506 C 881.484 95.506 881.063 95.928 881.063 96.444 C 881.063 96.96 881.484 97.381 882 97.381 C 882.516 97.381 882.938 96.96 882.938 96.444 C 882.938 95.928 882.516 95.506 882 95.506 Z  M 885.75 95.506 C 885.234 95.506 884.813 95.928 884.813 96.444 C 884.813 96.96 885.234 97.381 885.75 97.381 C 886.266 97.381 886.688 96.96 886.688 96.444 C 886.688 95.928 886.266 95.506 885.75 95.506 Z  M 889.5 95.506 C 888.984 95.506 888.563 95.928 888.563 96.444 C 888.563 96.96 888.984 97.381 889.5 97.381 C 890.016 97.381 890.438 96.96 890.438 96.444 C 890.438 95.928 890.016 95.506 889.5 95.506 Z " fill="rgb(95,165,251)"/></svg>