<?xml version="1.0" standalone="no"?><!-- Generator: Gravit.io --><svg xmlns="http://www.w3.org/2000/svg" xmlns:xlink="http://www.w3.org/1999/xlink" style="isolation:isolate" viewBox="104.5 43.006 60 60" width="60" height="60"><path d=" M 143.589 43.006 C 140.431 43.006 137.441 43.713 134.753 44.97 L 135.676 46.561 C 138.158 45.419 140.857 44.827 143.589 44.825 C 154.115 44.825 162.682 53.391 162.682 63.917 C 162.685 68.535 161.003 72.996 157.951 76.461 L 155.408 73.918 L 154.723 79.394 C 154.698 79.412 154.677 79.433 154.652 79.448 L 154.705 79.543 L 154.499 81.192 L 161.772 80.283 L 159.248 77.758 C 162.635 73.944 164.504 69.019 164.5 63.917 C 164.5 52.385 155.121 43.006 143.589 43.006 Z  M 132.679 46.643 L 125.406 47.552 L 127.93 50.077 C 124.543 53.891 122.674 58.816 122.678 63.917 C 122.678 68.545 124.191 72.825 126.745 76.291 L 122.884 80.155 C 122.578 80.039 122.253 79.977 121.925 79.973 C 121.225 79.973 120.525 80.24 119.997 80.769 L 105.294 95.472 C 104.235 96.54 104.235 98.261 105.294 99.329 L 108.178 102.213 C 109.245 103.271 110.967 103.271 112.034 102.213 L 126.737 87.51 C 127.511 86.737 127.714 85.597 127.352 84.623 L 131.216 80.763 C 134.799 83.408 139.136 84.833 143.589 84.828 C 146.747 84.828 149.737 84.122 152.425 82.865 L 151.502 81.274 C 149.02 82.415 146.321 83.008 143.589 83.01 C 133.063 83.01 124.496 74.444 124.496 63.917 C 124.493 59.3 126.175 54.839 129.227 51.374 L 131.77 53.917 L 132.455 48.441 C 132.48 48.422 132.501 48.401 132.526 48.387 L 132.473 48.291 L 132.679 46.643 Z  M 143.589 46.643 C 143.089 46.643 142.68 47.052 142.68 47.552 C 142.68 48.052 143.089 48.461 143.589 48.461 C 144.089 48.461 144.498 48.052 144.498 47.552 C 144.498 47.052 144.089 46.643 143.589 46.643 Z  M 139.36 47.2 L 139.299 47.2 C 139.235 47.208 139.178 47.215 139.118 47.232 C 138.79 47.303 138.529 47.549 138.437 47.871 C 138.345 48.193 138.437 48.54 138.678 48.773 C 138.918 49.006 139.268 49.089 139.587 48.987 C 140.027 48.871 140.314 48.446 140.256 47.994 C 140.199 47.542 139.815 47.203 139.36 47.2 Z  M 147.818 47.2 C 147.363 47.203 146.979 47.542 146.922 47.994 C 146.864 48.446 147.151 48.871 147.591 48.987 C 148.076 49.117 148.574 48.829 148.703 48.344 C 148.833 47.86 148.545 47.362 148.06 47.232 C 147.981 47.211 147.9 47.2 147.818 47.2 Z  M 135.386 48.834 C 135.233 48.838 135.083 48.881 134.952 48.959 C 134.742 49.077 134.588 49.276 134.525 49.508 C 134.463 49.741 134.496 49.99 134.618 50.198 C 134.739 50.407 134.937 50.561 135.173 50.624 C 135.515 50.712 135.877 50.592 136.101 50.319 C 136.325 50.045 136.37 49.667 136.216 49.349 C 136.063 49.03 135.739 48.83 135.386 48.834 Z  M 151.729 48.838 C 151.227 48.861 150.839 49.287 150.862 49.789 C 150.886 50.291 151.312 50.679 151.813 50.655 C 152.315 50.632 152.703 50.206 152.68 49.704 C 152.656 49.202 152.231 48.815 151.729 48.838 Z  M 155.175 51.434 C 154.804 51.43 154.468 51.65 154.324 51.991 C 154.18 52.332 154.256 52.727 154.517 52.989 C 154.872 53.341 155.447 53.341 155.803 52.989 C 156.157 52.635 156.157 52.055 155.803 51.7 C 155.635 51.534 155.41 51.439 155.174 51.434 L 155.175 51.434 Z  M 157.738 54.826 C 157.417 54.833 157.124 55.009 156.966 55.289 C 156.808 55.569 156.81 55.911 156.971 56.189 C 157.234 56.598 157.772 56.729 158.193 56.486 C 158.614 56.243 158.77 55.713 158.548 55.28 C 158.381 54.993 158.071 54.818 157.738 54.826 L 157.738 54.826 Z  M 129.372 54.826 C 129.067 54.844 128.787 55.014 128.63 55.28 C 128.509 55.488 128.476 55.736 128.538 55.968 C 128.6 56.201 128.752 56.399 128.96 56.519 C 129.169 56.641 129.417 56.674 129.65 56.612 C 129.883 56.55 130.082 56.398 130.203 56.189 C 130.324 55.981 130.357 55.733 130.295 55.5 C 130.232 55.268 130.079 55.07 129.87 54.95 C 129.719 54.862 129.547 54.818 129.372 54.826 Z  M 127.774 58.775 C 127.365 58.777 127.008 59.052 126.901 59.446 C 126.773 59.932 127.061 60.431 127.547 60.562 C 127.779 60.624 128.027 60.592 128.236 60.471 C 128.445 60.351 128.597 60.152 128.659 59.919 C 128.732 59.645 128.673 59.352 128.499 59.128 C 128.326 58.904 128.058 58.773 127.774 58.775 Z  M 159.404 58.775 C 159.382 58.772 159.361 58.775 159.34 58.775 C 159.068 58.792 158.818 58.931 158.659 59.153 C 158.5 59.374 158.449 59.656 158.52 59.919 C 158.581 60.152 158.733 60.351 158.942 60.472 C 159.15 60.593 159.399 60.625 159.631 60.562 C 159.865 60.501 160.065 60.349 160.185 60.139 C 160.347 59.858 160.348 59.513 160.186 59.232 C 160.025 58.951 159.727 58.777 159.403 58.775 L 159.404 58.775 Z  M 127.224 63.008 C 126.724 63.008 126.315 63.417 126.315 63.917 C 126.315 64.417 126.724 64.827 127.224 64.827 C 127.724 64.827 128.133 64.417 128.133 63.917 C 128.133 63.417 127.724 63.008 127.224 63.008 Z  M 159.954 63.008 C 159.454 63.008 159.045 63.417 159.045 63.917 C 159.045 64.417 159.454 64.827 159.954 64.827 C 160.454 64.827 160.863 64.417 160.863 63.917 C 160.863 63.417 160.454 63.008 159.954 63.008 Z  M 127.817 67.245 C 127.528 67.235 127.252 67.362 127.071 67.587 C 126.891 67.812 126.827 68.109 126.9 68.389 C 126.963 68.622 127.115 68.821 127.325 68.942 C 127.534 69.062 127.783 69.095 128.016 69.032 C 128.249 68.97 128.447 68.818 128.568 68.609 C 128.689 68.4 128.721 68.152 128.659 67.92 C 128.557 67.534 128.215 67.26 127.817 67.245 L 127.817 67.245 Z  M 159.386 67.245 C 158.978 67.249 158.623 67.525 158.519 67.92 C 158.455 68.152 158.487 68.4 158.609 68.609 C 158.729 68.818 158.928 68.972 159.162 69.032 C 159.646 69.162 160.145 68.876 160.277 68.392 C 160.35 68.117 160.29 67.823 160.115 67.598 C 159.94 67.373 159.671 67.243 159.386 67.245 L 159.386 67.245 Z  M 129.394 71.191 C 129.241 71.194 129.096 71.236 128.96 71.312 C 128.752 71.434 128.601 71.633 128.538 71.866 C 128.474 72.099 128.507 72.347 128.63 72.555 C 128.748 72.765 128.947 72.917 129.18 72.977 C 129.413 73.042 129.662 73.009 129.87 72.885 C 130.079 72.765 130.232 72.567 130.295 72.335 C 130.357 72.102 130.324 71.854 130.203 71.645 C 130.037 71.358 129.727 71.183 129.394 71.191 Z  M 157.72 71.194 C 157.41 71.208 157.128 71.378 156.971 71.645 C 156.722 72.083 156.873 72.64 157.308 72.892 C 157.744 73.14 158.298 72.989 158.548 72.555 C 158.714 72.267 158.71 71.912 158.538 71.629 C 158.365 71.345 158.052 71.179 157.72 71.194 Z  M 132.029 74.582 C 131.784 74.579 131.548 74.674 131.372 74.846 C 131.022 75.203 131.022 75.776 131.372 76.134 C 131.73 76.486 132.303 76.486 132.661 76.134 C 133.012 75.776 133.012 75.203 132.661 74.846 C 132.493 74.678 132.266 74.583 132.029 74.582 Z  M 151.747 77.182 C 151.596 77.184 151.448 77.224 151.317 77.3 C 150.908 77.562 150.777 78.1 151.02 78.521 C 151.263 78.942 151.794 79.098 152.226 78.876 C 152.433 78.755 152.585 78.557 152.649 78.321 C 152.713 78.089 152.68 77.84 152.556 77.633 C 152.391 77.345 152.079 77.171 151.747 77.182 Z  M 135.364 77.182 C 135.053 77.195 134.772 77.367 134.618 77.637 C 134.497 77.845 134.464 78.093 134.527 78.326 C 134.59 78.559 134.743 78.757 134.952 78.876 C 135.159 79 135.408 79.034 135.641 78.969 C 135.874 78.909 136.073 78.756 136.191 78.546 C 136.315 78.339 136.348 78.09 136.284 77.857 C 136.221 77.624 136.069 77.425 135.861 77.302 C 135.71 77.216 135.538 77.174 135.364 77.182 Z  M 127.895 77.715 C 128.487 78.386 129.121 79.019 129.791 79.612 L 126.244 83.159 L 124.347 81.263 L 127.895 77.715 Z  M 139.345 78.82 C 138.891 78.823 138.509 79.162 138.452 79.613 C 138.394 80.064 138.679 80.488 139.118 80.605 C 139.473 80.701 139.852 80.573 140.076 80.281 C 140.3 79.988 140.326 79.589 140.141 79.271 C 140.018 79.063 139.819 78.911 139.586 78.848 C 139.508 78.826 139.426 78.817 139.345 78.82 Z  M 147.861 78.82 C 147.573 78.809 147.297 78.935 147.116 79.159 C 146.936 79.384 146.872 79.681 146.945 79.96 C 147.077 80.446 147.574 80.733 148.06 80.605 C 148.493 80.488 148.775 80.073 148.725 79.627 C 148.676 79.182 148.309 78.839 147.861 78.82 Z  M 143.589 79.373 C 143.089 79.373 142.68 79.782 142.68 80.283 C 142.68 80.783 143.089 81.192 143.589 81.192 C 144.089 81.192 144.498 80.783 144.498 80.283 C 144.498 79.782 144.089 79.373 143.589 79.373 Z  M 121.925 81.784 C 122.156 81.784 122.383 81.874 122.564 82.055 L 125.452 84.938 C 125.626 85.107 125.724 85.339 125.724 85.581 C 125.724 85.823 125.626 86.055 125.452 86.224 L 110.749 100.927 C 110.58 101.101 110.348 101.199 110.106 101.199 C 109.864 101.199 109.632 101.101 109.463 100.927 L 106.579 98.043 C 106.406 97.874 106.308 97.643 106.308 97.4 C 106.308 97.158 106.406 96.926 106.579 96.758 L 108.131 95.206 L 110.216 97.29 L 111.502 96.005 L 109.417 93.92 L 110.859 92.478 L 112.944 94.563 L 114.229 93.277 L 112.144 91.193 L 113.586 89.751 L 115.671 91.835 L 116.957 90.55 L 114.872 88.465 L 116.314 87.023 L 118.399 89.108 L 119.684 87.822 L 117.599 85.738 L 119.041 84.296 L 121.126 86.38 L 122.412 85.095 L 120.327 83.01 L 121.282 82.055 C 121.463 81.874 121.694 81.784 121.925 81.784 Z " fill="rgb(95,165,251)"/></svg>