<?xml version="1.0" standalone="no"?><!-- Generator: Gravit.io --><svg xmlns="http://www.w3.org/2000/svg" xmlns:xlink="http://www.w3.org/1999/xlink" style="isolation:isolate" viewBox="353.366 43.006 61.934 60" width="61.934" height="60"><path d=" M 391.107 43.006 C 389.509 43.006 388.204 44.311 388.204 45.91 L 388.204 47.055 C 387.895 46.94 387.567 46.88 387.237 46.877 L 379.495 46.877 C 377.896 46.877 376.592 48.182 376.592 49.781 L 376.592 53.319 C 376.379 53.191 376.15 53.094 375.911 53.028 L 370.301 51.522 C 369.559 51.323 368.767 51.427 368.102 51.813 C 367.433 52.196 366.946 52.83 366.748 53.574 L 359.732 79.751 C 359.319 81.301 360.239 82.893 361.788 83.308 L 363.073 83.652 L 356.269 83.652 C 354.671 83.652 353.366 84.956 353.366 86.555 L 353.366 92.361 C 353.366 93.96 354.671 95.265 356.269 95.265 L 361.108 95.265 L 361.108 100.103 C 361.108 101.702 362.412 103.006 364.011 103.006 C 365.61 103.006 366.914 101.702 366.914 100.103 L 366.914 95.265 L 401.752 95.265 L 401.752 100.103 C 401.752 101.702 403.057 103.006 404.656 103.006 C 406.254 103.006 407.559 101.702 407.559 100.103 L 407.559 95.265 L 412.397 95.265 C 413.996 95.265 415.301 93.96 415.301 92.361 L 415.301 86.555 C 415.301 84.956 413.996 83.652 412.397 83.652 L 409.494 83.652 L 409.494 55.587 C 409.494 53.988 408.19 52.684 406.591 52.684 L 402.72 52.684 C 402.379 52.684 402.054 52.751 401.752 52.862 L 401.752 45.91 C 401.752 44.311 400.448 43.006 398.849 43.006 L 391.107 43.006 Z  M 391.107 44.942 L 398.849 44.942 C 399.381 44.942 399.817 45.377 399.817 45.91 L 399.817 83.651 L 390.14 83.651 L 390.14 45.91 C 390.14 45.377 390.575 44.942 391.107 44.942 Z  M 379.495 48.813 L 387.237 48.813 C 387.769 48.813 388.204 49.248 388.204 49.781 L 388.204 83.651 L 378.527 83.651 L 378.527 49.781 C 378.527 49.248 378.962 48.813 379.495 48.813 Z  M 393.043 48.813 C 392.506 48.813 392.075 49.243 392.075 49.781 C 392.075 50.318 392.506 50.748 393.043 50.748 L 396.914 50.748 C 397.451 50.748 397.882 50.318 397.882 49.781 C 397.882 49.243 397.451 48.813 396.914 48.813 L 393.043 48.813 Z  M 381.43 52.684 C 380.893 52.684 380.462 53.114 380.462 53.651 C 380.462 54.189 380.893 54.619 381.43 54.619 L 385.301 54.619 C 385.838 54.619 386.269 54.189 386.269 53.651 C 386.269 53.114 385.838 52.684 385.301 52.684 L 381.43 52.684 Z  M 369.549 53.361 C 369.636 53.361 369.719 53.371 369.802 53.394 L 375.412 54.895 C 375.927 55.035 376.236 55.568 376.096 56.085 L 369.08 82.256 C 369.014 82.505 368.852 82.717 368.63 82.846 C 368.408 82.974 368.145 83.008 367.897 82.941 L 362.288 81.44 C 361.772 81.298 361.468 80.766 361.607 80.249 L 368.619 54.078 C 368.732 53.657 369.112 53.362 369.548 53.36 L 369.549 53.361 Z  M 402.72 54.619 L 406.591 54.619 C 407.123 54.619 407.559 55.055 407.559 55.587 L 407.559 83.651 L 401.752 83.651 L 401.752 81.715 L 405.623 81.715 C 406.16 81.715 406.591 81.285 406.591 80.748 C 406.591 80.211 406.16 79.78 405.623 79.78 L 401.752 79.78 L 401.752 60.426 L 405.623 60.426 C 406.16 60.426 406.591 59.995 406.591 59.458 C 406.591 58.921 406.16 58.49 405.623 58.49 L 401.752 58.49 L 401.752 55.587 C 401.752 55.055 402.188 54.619 402.72 54.619 Z  M 369.851 55.492 C 369.466 55.545 369.151 55.823 369.05 56.198 C 368.913 56.715 369.218 57.246 369.734 57.386 L 373.476 58.385 C 373.724 58.451 373.987 58.417 374.209 58.29 C 374.431 58.162 374.593 57.951 374.66 57.704 C 374.799 57.187 374.492 56.656 373.976 56.517 L 370.237 55.515 C 370.112 55.481 369.98 55.473 369.851 55.492 Z  M 376.592 61.711 L 376.592 83.651 L 370.528 83.651 C 370.714 83.383 370.865 83.084 370.952 82.759 L 376.592 61.711 Z  M 363.845 77.924 C 363.459 77.977 363.142 78.255 363.039 78.63 C 362.901 79.147 363.207 79.679 363.724 79.818 L 367.462 80.819 C 367.71 80.886 367.975 80.852 368.198 80.724 C 368.42 80.595 368.583 80.384 368.649 80.135 C 368.786 79.619 368.481 79.089 367.965 78.949 L 364.223 77.95 C 364.101 77.914 363.972 77.905 363.846 77.924 L 363.845 77.924 Z  M 381.43 79.78 C 380.893 79.78 380.462 80.211 380.462 80.748 C 380.462 81.285 380.893 81.715 381.43 81.715 L 385.301 81.715 C 385.838 81.715 386.269 81.285 386.269 80.748 C 386.269 80.211 385.838 79.78 385.301 79.78 L 381.43 79.78 Z  M 393.043 79.78 C 392.506 79.78 392.075 80.211 392.075 80.748 C 392.075 81.285 392.506 81.715 393.043 81.715 L 396.914 81.715 C 397.451 81.715 397.882 81.285 397.882 80.748 C 397.882 80.211 397.451 79.78 396.914 79.78 L 393.043 79.78 Z  M 356.269 85.586 L 412.397 85.586 C 412.93 85.586 413.365 86.022 413.365 86.554 L 413.365 92.36 C 413.365 92.893 412.93 93.328 412.397 93.328 L 356.269 93.328 C 355.737 93.328 355.302 92.893 355.302 92.36 L 355.302 86.554 C 355.302 86.022 355.737 85.586 356.269 85.586 Z  M 360.14 87.522 C 359.558 87.522 359.172 87.952 359.172 88.49 L 359.172 90.425 C 359.172 90.962 359.558 91.393 360.14 91.393 C 360.723 91.393 361.108 90.962 361.108 90.425 L 361.108 88.49 C 361.108 87.952 360.723 87.522 360.14 87.522 Z  M 364.979 87.522 C 364.396 87.522 364.011 87.952 364.011 88.49 L 364.011 90.425 C 364.011 90.962 364.396 91.393 364.979 91.393 C 365.561 91.393 365.947 90.962 365.947 90.425 L 365.947 88.49 C 365.947 87.952 365.561 87.522 364.979 87.522 Z  M 369.817 87.522 C 369.235 87.522 368.85 87.952 368.85 88.49 L 368.85 90.425 C 368.85 90.962 369.235 91.393 369.817 91.393 C 370.4 91.393 370.785 90.962 370.785 90.425 L 370.785 88.49 C 370.785 87.952 370.4 87.522 369.817 87.522 Z  M 374.656 87.522 C 374.073 87.522 373.688 87.952 373.688 88.49 L 373.688 90.425 C 373.688 90.962 374.073 91.393 374.656 91.393 C 375.239 91.393 375.624 90.962 375.624 90.425 L 375.624 88.49 C 375.624 87.952 375.239 87.522 374.656 87.522 Z  M 379.495 87.522 C 378.912 87.522 378.527 87.952 378.527 88.49 L 378.527 90.425 C 378.527 90.962 378.912 91.393 379.495 91.393 C 380.077 91.393 380.462 90.962 380.462 90.425 L 380.462 88.49 C 380.462 87.952 380.077 87.522 379.495 87.522 Z  M 384.333 87.522 C 383.751 87.522 383.366 87.952 383.366 88.49 L 383.366 90.425 C 383.366 90.962 383.751 91.393 384.333 91.393 C 384.916 91.393 385.301 90.962 385.301 90.425 L 385.301 88.49 C 385.301 87.952 384.916 87.522 384.333 87.522 Z  M 389.172 87.522 C 388.589 87.522 388.204 87.952 388.204 88.49 L 388.204 90.425 C 388.204 90.962 388.589 91.393 389.172 91.393 C 389.755 91.393 390.14 90.962 390.14 90.425 L 390.14 88.49 C 390.14 87.952 389.755 87.522 389.172 87.522 Z  M 394.011 87.522 C 393.428 87.522 393.043 87.952 393.043 88.49 L 393.043 90.425 C 393.043 90.962 393.428 91.393 394.011 91.393 C 394.593 91.393 394.978 90.962 394.978 90.425 L 394.978 88.49 C 394.978 87.952 394.593 87.522 394.011 87.522 Z  M 398.849 87.522 C 398.267 87.522 397.882 87.952 397.882 88.49 L 397.882 90.425 C 397.882 90.962 398.267 91.393 398.849 91.393 C 399.432 91.393 399.817 90.962 399.817 90.425 L 399.817 88.49 C 399.817 87.952 399.432 87.522 398.849 87.522 Z  M 403.688 87.522 C 403.105 87.522 402.72 87.952 402.72 88.49 L 402.72 90.425 C 402.72 90.962 403.105 91.393 403.688 91.393 C 404.27 91.393 404.656 90.962 404.656 90.425 L 404.656 88.49 C 404.656 87.952 404.27 87.522 403.688 87.522 Z  M 408.526 87.522 C 407.944 87.522 407.559 87.952 407.559 88.49 L 407.559 90.425 C 407.559 90.962 407.944 91.393 408.526 91.393 C 409.109 91.393 409.494 90.962 409.494 90.425 L 409.494 88.49 C 409.494 87.952 409.109 87.522 408.526 87.522 Z  M 363.043 95.264 L 364.979 95.264 L 364.979 100.102 C 364.979 100.635 364.543 101.07 364.011 101.07 C 363.479 101.07 363.043 100.635 363.043 100.102 L 363.043 95.264 Z  M 403.688 95.264 L 405.623 95.264 L 405.623 100.102 C 405.623 100.635 405.188 101.07 404.656 101.07 C 404.123 101.07 403.688 100.635 403.688 100.102 L 403.688 95.264 Z " fill="rgb(95,165,251)"/></svg>